<?xml version="1.0" encoding="UTF-8"?>
<svg id="Ebene_1" data-name="Ebene 1" xmlns="http://www.w3.org/2000/svg" viewBox="0 0 736.33 397.39">
  <defs>
    <style>
      .cls-1 {
        fill: #eae3d9;
      }

      .cls-2 {
        fill: #a794c6;
      }

      .cls-3 {
        fill: #d2c5e2;
      }

      .cls-4 {
        fill: #aea18a;
      }

      .cls-5 {
        fill: #d5c9b6;
      }

      .cls-6 {
        fill: #927cb8;
      }

      .cls-7 {
        fill: #bcacd5;
      }

      .cls-8 {
        fill: #e0d6c6;
      }
    </style>
  </defs>
  <path class="cls-5" d="M247.63,50.87c-3.02-1.6-6.11-3.07-9.26-4.39-34.73-14.67-78.89-12.95-110.67,8.22-6.33,4.12-12.29,9.43-16.21,15.82,3.56-2.68,7.21-4.95,11.17-6.8,3.89-1.86,7.93-3.29,12.01-4.67,15.84-5.48,31.89-7.11,48.64-6.25,13.45.69,26.71,2.2,39.47,6.65,32.08,11.2,57.62,36.27,74.6,65.33,8.77,15,14.17,31.62,18.22,48.58,1.56-18.15-1.03-36.69-7.73-53.67-11.57-28.84-32.63-54.19-60.26-68.81"/>
  <polygon class="cls-4" points="678.25 143.96 670.27 143.96 666.5 161.19 667.52 161.19 678.25 143.96"/>
  <g>
    <path class="cls-3" d="M124.81,211.54c1.17,1.81,2.47,3.53,3.98,5.07-.16-.71-.36-1.39-.54-2.07-.5-1.94-1.03-4.09-1.44-6.05-4.17-19.43-.79-36.55,8.49-53.89-17.57,12.22-21.89,39.08-10.48,56.94"/>
    <path class="cls-7" d="M286.19,231.49c-18.47,24.96-51.09,33.54-80.12,24.54-5.06-1.55-10.39-3.58-15.01-6.15-15.89-8.65-27.77-18.86-36.99-38.67-6.8-14.61-10.75-36.95-7.07-52.59,2.44-10.9,9.37-21.15,20.27-24.51,6.81-2.18,14.62-1.66,21.14,1.2.58.26,1.37.57,1.37.57,0,0-.55-1.9-.65-2.22-.24-.82-.48-1.64-.74-2.46-.51-1.67-1.05-3.34-1.65-4.98-1.13-3.13-2.53-6.1-4.09-9.03-11.62,1.06-23.87,5.42-32.43,13.59-10.6,10.15-14.72,24.93-15.51,39.15-.68,14.97,1.33,29.41,7.04,43.88,6.96,17.63,19.55,32.69,34.71,44.18,6.15,4.57,12.99,8.26,20.29,10.56,26.93,8.43,57.85,3.32,80.28-14.02,21.3-16.12,29.76-43.16,30.26-69.31.33-17.47-3.25-35.16-11.81-50.41,13.46,30.27,10.3,69.87-9.3,96.69"/>
    <path class="cls-3" d="M166.38,115.01c-14.17-1.98-29.35,4.56-38.38,15.78-6.85,8.56-9.92,19.49-10.57,30.28-.18,3.53-.12,7.05.38,10.55.96-3.35,1.84-6.67,2.87-9.97,1.97-6.42,4.21-12.67,7.33-18.56,7.58-14.83,22.68-23.91,38.36-28.08"/>
    <path class="cls-3" d="M150.25,241.38c-1.92-2.78-3.98-5.59-5.66-8.47-5.27-8.62-7.38-17.39-8.72-27.33-4.37,6.18-4.46,14.61-1.72,21.53,2.78,6.9,8.68,12.91,16.1,14.27"/>
    <path class="cls-1" d="M133.96,299.94c-15.98-24.02-34.69-45.96-50.57-69.75-5.67-8.71-11.36-18.95-14.35-28.95-4.79-18.9-6.62-37.99-3.56-57.24,5.59-36.64,27.55-69.74,55.35-93.9-14.72,5.81-27.94,15.16-39.1,26.41-32.05,31.93-44.9,81.55-34.45,125.64,1.37,6.46,3.71,12.8,6.68,18.63,2.82,5.58,6.08,10.87,9.6,15.99,17.85,25.63,40.18,47.54,60.46,70.87,11.07,12.86,22.23,25.91,29.74,41.24,1.62,3.42,3.01,6.95,3.99,10.63.49,1.85.86,3.73,1.12,5.67.78-5.82.06-11.92-1.34-17.65-4.42-17.32-13.89-32.85-23.57-47.59"/>
    <path class="cls-2" d="M203.75,111.89c1.22,1.5,2.46,2.98,3.71,4.45.04.05.08.1.13.15,5.74,6.7,11.84,13.09,18.14,19.19.98.87,1.88,1.72,2.73,2.55-12.9-20.46-31.03-48.91-35.98-66.95.57,9.22,4,21.87,8.6,32.9,1.02,2.44,1.78,5.04,2.67,7.72"/>
    <path class="cls-2" d="M203.2,153.71c.45.6,1,1.12,1.64,1.51,2.6,1.59,6.13,2.14,8.92,3.49-2.72.95-4.93,3.54-4.57,6.56.17,1.43.9,2.78,2.04,3.65,1.43,1.08,3.3,1.03,4.97.72,1.11-.2,2.27-.4,3.3-.88.09-.04.17-.11.25-.16.16,2.92-.63,5.73.1,9.49l-1.25-1.8c-1.41-1.54-3.37-2.6-5.28-3.53-2.57-1.25-5.31-2.52-6.93-4.89-1.57-2.31-1.78-5.25-2.02-8.03-.19-2.28-.49-4.68-1.58-6.64l.4.52ZM216.16,162.38c.69-.37,1.37-.62,2.05-.81.56.66.96,1.46,1.11,2.35-.5.41-1.04.79-1.68,1.13-1.72.93-3.56,1.44-5.14,1.05.56-1.53,1.93-2.81,3.66-3.73M285.19,126.91c-13.8-26.33-33.58-46.5-60.62-56.26-8.69-3.19-17.72-5.13-26.78-5.87,18.65,5.71,33.28,13.32,46.53,25.16,11.55,10.14,20.09,23.15,27.21,36.72,5.09,9.19,8.22,19.46,9.23,29.93,2.03,20.48-3.08,42-15.48,58.49-5.92,7.91-13.45,14.38-22.6,17.96-18.48,7.42-40.15,2.36-55.37-10.11-3.67-2.97-6.94-6.35-9.82-10.05-2.75-3.53-5.13-7.34-7.13-11.37-2.25-4.54-4.03-9.33-5.29-14.28-2.5-10.49-4.37-25.3,2.16-34.43,1.84-2.57,4.2-4.6,7.16-5.5,1.56-.42,3.25-.31,4.98.13.62.16,1.24.35,1.87.59.97.37,1.94.83,2.9,1.35-.61-.13-1.22-.28-1.84-.37-.93-.14-1.87-.25-2.8-.31-10.62-.75-11.31,14.19-11.31,14.19,2.36-3.99,5.99-6.25,9.59-4.16,1.72.99,2.53,4.04,2.85,5.7.64,3.28,1.74,6.15,3.54,9.01,1.75,2.79,3.93,5.3,6.28,7.59,5.25,5.12,11.32,9.54,15.39,15.65,2.72,4.1,4.47,8.86,7.67,12.58,3.2,3.73,8.68,6.23,13.02,3.96.07-.04.14-.08.2-.12-.22.13-2.5-2.11-2.77-2.35-.93-.85-1.84-1.73-2.71-2.64-1.69-1.77-3.23-3.66-4.63-5.67-2.96-4.27-5.55-8.8-7.72-13.52-.62-1.34-1.14-2.7-1.68-4.08-.44-1.12-.94-2.45-1.13-3.59,0,0,8.56,14.93,16.29,23.37,1.77,2.2,3.72,4.23,5.92,6,.6-1.94,1.76-3.71,3.36-4.97.83-.68,1.74-1.23,2.57-1.75.27-.18.83-.51,1.01-.73.39-.43.73-1.05.56-1.62-.22-.47-.99-.67-1.58-.67-1.33,0-2.54.55-3.63,1.44-.21.21-.57-.06-.44-.32.66-1.54,2.24-2.7,3.94-2.93,1.55-.26,3.46.52,3.75,2.25.24,1.54-.66,3.08-1.94,3.86-3.28,1.78-5.2,3.37-6.46,6.28,0,0,.36.29.47.38.26.2.52.39.8.56.43.27.99.21,1.46.13.43-.07.85-.21,1.28-.32,2.92-.81,5.48-2.63,7.49-4.87,1.48-1.65,3.46-4.03,3.36-6.38-.06-1.4-.87-2.66-1.8-3.7-1.42-1.6-2.95-2.98-3.77-5.02-6.49-19.36,3.24-32.41-8.85-47.51-1.7-2.12-3.83-4.28-6.5-6.48-5.13-4.51-10.03-9.34-14.68-14.41-1.14-1.25-2.28-2.51-3.39-3.79-1.67-1.93-3.3-3.89-4.9-5.89-11.59-14.52-21-30.83-27.18-48.34.04.97.05,1.94.12,2.9.56,7.55,2,14.99,4.35,22.16,2.43,7.35,5.93,14.07,9.28,20.99,3.41,7.05,6.22,14.22,7.51,21.99.54,3.24.82,6.54.99,9.82.03.58.05,1.16.07,1.75,0,.26.03,1.63.03,1.63-.12-.12-.23-.23-.35-.34-.29-.27-.58-.53-.88-.8-.09-.08-.18-.17-.28-.25-5.54-4.9-12.86-9.07-20.62-8.25-8.67,1.04-15.67,7.8-19.25,15.46-4.38,9.37-4.53,19.98-3.54,30.07,2.1,19.84,11.46,39.05,26.63,52.08,9.96,8.75,22.02,14.51,34.58,16.92.68.13,1.37.26,2.05.37,19.19,3.1,39.31-1.66,54.63-15.71,29.44-27.08,35.04-74.5,16.61-109.68"/>
    <path class="cls-4" d="M376.97,185.14c-2.37-.09-4.23-.15-5.58-.15h-10.88v-46.44h18.2c2.27,0,4.71.12,7.32.37,2.61.24,5.27.78,7.98,1.61,2.71.83,5.15,2.09,7.32,3.8,2.18,1.71,3.94,3.92,5.29,6.65s2.03,6.23,2.03,10.51-.72,8.18-2.18,11.1c-1.45,2.92-3.33,5.26-5.65,7.01-2.32,1.75-4.89,3.02-7.69,3.8-2.81.78-5.61,1.29-8.41,1.54-2.8.24-5.39.31-7.76.22M426.35,227.93c0,.1-.02.17-.07.22-.05.05-.07.12-.07.22-.39.78-.72,1.32-1.01,1.61-.48.59-1.18.95-2.1,1.1-.92.15-1.72.03-2.39-.36-1.06-.49-1.86-1.29-2.39-2.41-.53-1.12-1.04-2.21-1.52-3.28l-6.53-16.51-1.16-2.48c-.2-.48-.36-.97-.51-1.46-.15-.49-.36-.97-.65-1.46-.48-1.07-1.21-2.34-2.18-3.8-.97-1.46-2.23-2.95-3.77-4.46-1.55-1.51-3.41-2.92-5.58-4.24-2.18-1.31-4.76-2.41-7.76-3.28l-1.01-.15c3.38-.29,6.82-.88,10.29-1.76,3.48-.87,6.62-2.31,9.43-4.31,2.8-1.99,5.13-4.6,6.96-7.81,1.83-3.21,2.76-7.3,2.76-12.27,0-4.67-.85-8.52-2.54-11.54-1.69-3.01-3.89-5.43-6.6-7.23s-5.73-3.14-9.07-4.02c-3.33-.88-6.62-1.46-9.86-1.75-3.24-.29-6.31-.41-9.21-.37-2.9.05-5.22.07-6.96.07h-6.89c-2.85,0-5.68-.05-8.48-.15h-10.15v.44c.96,0,1.83.24,2.61.73.58.49,1.13,1.27,1.66,2.34.53,1.07.8,2.63.8,4.68v81.35c0,1.95-.27,3.46-.8,4.53-.53,1.07-1.09,1.85-1.66,2.34-.78.49-1.65.73-2.61.73v.59c1.35-.09,2.61-.19,3.77-.29,1.06-.1,2.1-.17,3.12-.22,1.01-.05,1.81-.07,2.4-.07s1.38.02,2.39.07c1.02.05,2.01.12,2.97.22,1.16.1,2.37.2,3.63.29v-.59c-.97,0-1.79-.29-2.47-.88-.68-.49-1.28-1.24-1.81-2.26-.53-1.02-.8-2.55-.8-4.6v-38.12h12.18c.58,0,1.23.02,1.96.07.73.05,1.57.07,2.54.07,2.71.2,5.2.68,7.47,1.46,2.27.78,4.42,2.05,6.45,3.8,2.03,1.75,3.96,4.07,5.8,6.94,1.84,2.88,3.63,6.45,5.37,10.74l3.04,7.88c.48,1.27,1.04,2.73,1.66,4.38.63,1.66,1.42,3.24,2.4,4.75.96,1.51,2.12,2.87,3.48,4.09,1.35,1.22,2.99,1.97,4.93,2.26,2.51.39,4.59-.02,6.23-1.24s2.56-2.9,2.75-5.04l-.29.15c-.09.1-.15.19-.15.29"/>
    <path class="cls-4" d="M495.01,212.6c-.82,3.9-2.39,7.3-4.71,10.22-2.32,2.92-5.46,5.16-9.43,6.72-2.9,1.27-6.04,1.9-9.43,1.9-3.1,0-6.12-.53-9.06-1.61-2.95-1.07-5.68-2.51-8.2-4.31-2.51-1.8-4.78-3.94-6.81-6.43-2.03-2.48-3.68-5.09-4.93-7.81-1.55-3.5-2.64-7.4-3.26-11.69-.63-4.28-.61-8.49.07-12.63.68-4.14,2.12-7.94,4.35-11.39,2.22-3.45,5.41-6.06,9.57-7.81,2.8-1.17,5.8-1.75,8.99-1.75,2.71,0,5.44.44,8.19,1.31,2.76.88,5.39,2.14,7.9,3.8,2.51,1.66,4.83,3.7,6.96,6.13,2.12,2.44,3.92,5.21,5.37,8.33,2.22,4.97,3.72,9.74,4.5,14.31.77,4.58.75,8.81-.07,12.71M492.4,173.17c-3.24-3.31-7.06-5.92-11.46-7.81-4.4-1.9-9.11-2.85-14.14-2.85s-9.6.95-14,2.85c-4.4,1.89-8.22,4.5-11.45,7.81-3.24,3.31-5.8,7.18-7.69,11.61-1.88,4.43-2.83,9.13-2.83,14.09s.94,9.79,2.83,14.17c1.88,4.38,4.45,8.23,7.69,11.54,3.24,3.31,7.06,5.91,11.45,7.81,4.4,1.9,9.06,2.85,14,2.85s9.74-.95,14.14-2.85c4.4-1.9,8.22-4.5,11.46-7.81,3.24-3.31,5.8-7.16,7.69-11.54,1.88-4.38,2.83-9.1,2.83-14.17s-.94-9.66-2.83-14.09c-1.89-4.43-4.45-8.3-7.69-11.61"/>
    <path class="cls-4" d="M629.81,229.69c-.39.49-.9.95-1.52,1.39-.63.44-1.43.66-2.39.66-1.45,0-2.35-.8-2.69-2.41-.34-1.61-.55-3.38-.65-5.33v-25.56c0-5.84-.51-10.86-1.52-15.04-1.02-4.18-2.73-7.69-5.15-10.51-1.45-1.65-3.07-3.04-4.86-4.16-1.79-1.12-3.63-2.02-5.51-2.7-1.88-.68-3.8-1.17-5.73-1.46-1.93-.29-3.77-.44-5.51-.44-2.9,0-5.56.53-7.98,1.61-2.42,1.07-4.55,2.39-6.38,3.94-1.84,1.56-3.39,3.26-4.64,5.11-1.26,1.85-2.27,3.51-3.04,4.97-1.07-2.72-2.42-5.01-4.06-6.86-1.45-1.65-3.07-3.07-4.86-4.24-1.79-1.17-3.63-2.12-5.51-2.85-1.89-.73-3.8-1.24-5.73-1.53-1.93-.29-3.72-.34-5.36-.15-2.61.2-5,.73-7.18,1.61-2.17.88-4.11,1.95-5.8,3.21s-3.12,2.58-4.28,3.94-1.98,2.63-2.46,3.8v-.73c0-.09-.03-.17-.07-.22-.05-.05-.07-.12-.07-.22v-.29c0-1.17-.17-2.43-.51-3.8-.34-1.36-.82-2.58-1.45-3.65-.63-1.07-1.45-1.97-2.47-2.7-1.01-.73-2.25-1.09-3.7-1.09-.87,0-1.55.05-2.03.15-.48.1-1.11.29-1.88.58-2.51,1.17-4.01,3.02-4.5,5.55h.29c.19-.78.53-1.46,1.01-2.05.38-.48.87-.95,1.45-1.39.58-.44,1.35-.66,2.32-.66.77,0,1.4.24,1.89.73.58.78.96,1.8,1.16,3.07.19,1.27.29,2.58.29,3.94v51.7c0,1.95-.27,3.46-.8,4.53-.53,1.07-1.09,1.85-1.66,2.34-.77.49-1.64.73-2.61.73v.58c1.35-.09,2.61-.19,3.77-.29,1.06-.1,2.12-.17,3.19-.22,1.06-.05,1.88-.07,2.46-.07s1.35.02,2.32.07c.96.05,1.94.12,2.9.22,1.16.1,2.37.2,3.63.29v-.58c-.97,0-1.79-.29-2.47-.88-.68-.49-1.28-1.24-1.81-2.26-.53-1.02-.8-2.55-.8-4.6l.15-44.25c1.64-3.99,4.18-7.3,7.61-9.93,3.43-2.63,7.13-3.94,11.1-3.94,4.35,0,7.88.9,10.59,2.7,2.71,1.8,4.86,4.16,6.45,7.08,1.6,2.92,2.66,6.26,3.19,10,.53,3.75.8,7.52.8,11.32v27.31c0,1.95-.27,3.46-.8,4.53-.53,1.07-1.09,1.85-1.67,2.33-.77.49-1.64.73-2.61.73v.58c1.35-.1,2.61-.2,3.77-.29,1.06-.1,2.12-.17,3.19-.22,1.06-.05,1.88-.07,2.46-.07s1.35.02,2.32.07c.96.05,1.93.12,2.9.22,1.16.09,2.37.19,3.63.29v-.58c-.97,0-1.79-.29-2.47-.88-.58-.48-1.14-1.24-1.67-2.26-.53-1.02-.8-2.55-.8-4.6v-27.16c0-2.92-.15-5.62-.43-8.11-.29-2.48-.68-4.79-1.16-6.94,1.07-2.82,2.42-5.26,4.06-7.3,1.64-2.05,3.36-3.72,5.15-5.04,1.79-1.31,3.63-2.26,5.51-2.85,1.88-.59,3.6-.88,5.15-.88,4.35,0,7.91.9,10.66,2.7,2.76,1.8,4.91,4.16,6.45,7.08,1.55,2.92,2.61,6.26,3.19,10,.58,3.75.87,7.52.87,11.32v24.82c0,1.27.17,2.53.51,3.8.34,1.27.82,2.39,1.45,3.36.63.97,1.45,1.78,2.47,2.41,1.01.63,2.25.95,3.7.95.48,0,.92-.02,1.3-.07.39-.05.82-.12,1.31-.22,1.45-.39,2.73-1.05,3.84-1.97,1.11-.93,1.77-2.21,1.96-3.87h-.15c-.29.78-.63,1.46-1.01,2.04"/>
    <path class="cls-4" d="M653.66,170.83c3.53-3.7,8.24-5.55,14.14-5.55,4.06,0,7.59,1.03,10.59,3.07,2.99,2.05,5.12,4.29,6.38,6.72,1.26,2.44,1.5,4.68.73,6.72-.78,2.05-2.95,3.07-6.53,3.07h-32.48c1.26-5.64,3.65-10.32,7.18-14.02M683.54,229.61c-3.34,1.61-6.55,2.41-9.65,2.41-2.8,0-5.51-.53-8.12-1.61-2.61-1.07-5-2.55-7.18-4.46-2.18-1.9-4.13-4.13-5.87-6.72-1.74-2.58-3.15-5.38-4.21-8.4-1.35-3.41-2.25-7.21-2.68-11.39-.43-4.18-.36-8.32.22-12.41l.29-1.17h48c-.58-3.31-1.5-6.38-2.75-9.2-1.26-2.82-2.93-5.26-5-7.3-2.08-2.04-4.62-3.62-7.62-4.75-3-1.12-6.53-1.68-10.59-1.68s-8.05.95-11.67,2.85c-3.62,1.9-6.79,4.48-9.5,7.74-2.71,3.26-4.83,7.09-6.38,11.47-1.55,4.38-2.32,9.05-2.32,14.02s.77,9.64,2.32,14.02c1.55,4.38,3.67,8.2,6.38,11.47,2.71,3.26,5.87,5.84,9.5,7.74,3.63,1.9,7.52,2.85,11.67,2.85,1.74,0,3.6-.07,5.59-.22,1.98-.15,4.04-.59,6.16-1.31,2.13-.73,4.28-1.9,6.45-3.51,2.18-1.61,4.37-3.91,6.6-6.94h-2.18c-1.64,2.73-4.13,4.89-7.47,6.5"/>
  </g>
  <polygon class="cls-6" points="443.07 121.66 451.56 133.22 460.05 121.66 460.05 150.03 463.89 150.03 463.89 109.92 451.56 126.79 439.22 109.92 439.22 150.03 443.07 150.03 443.07 121.66"/>
  <polygon class="cls-6" points="491.98 146.16 479.03 146.16 479.03 132.42 491.98 132.42 491.98 128.55 479.03 128.55 479.03 114.88 491.98 114.88 491.98 111 475.18 111 475.18 150.03 491.98 150.03 491.98 146.16"/>
  <polygon class="cls-6" points="517.78 146.16 504.82 146.16 504.82 111 500.98 111 500.98 150.03 517.78 150.03 517.78 146.16"/>
  <path class="cls-6" d="M536.93,120.23l7.87,20.97h-15.73l7.86-20.97ZM527.82,144.39h18.22l2.09,5.64h4.13l-15.34-40.23-15.33,40.23h4.13l2.09-5.64Z"/>
  <polygon class="cls-6" points="562.26 123.71 578.67 151.11 578.67 111 574.82 111 574.82 137.44 558.41 109.92 558.41 150.03 562.26 150.03 562.26 123.71"/>
  <rect class="cls-6" x="589.95" y="111" width="3.85" height="39.03"/>
  <polygon class="cls-6" points="621.82 146.16 608.87 146.16 608.87 132.42 621.82 132.42 621.82 128.55 608.87 128.55 608.87 114.88 621.82 114.88 621.82 111 605.02 111 605.02 150.03 621.82 150.03 621.82 146.16"/>
  <path class="cls-8" d="M162.55,63.35c-25.88,4.32-47.15,20.61-58.56,43.5-11.14,22.11-16.56,46.91-15.89,71.76-.36,17.82.56,34.14,4.75,51.6-11.03-14.21-16.2-33.06-18.33-50.6-2.06-18.34-1.02-37.53,4.9-55.15,11.65-34.37,45.86-64.12,83.12-61.1"/>
</svg>