<?xml version="1.0" encoding="UTF-8"?>
<svg id="Ebene_1" xmlns="http://www.w3.org/2000/svg" version="1.1" viewBox="0 0 195.8 97">
  <!-- Generator: Adobe Illustrator 30.1.0, SVG Export Plug-In . SVG Version: 2.1.1 Build 136)  -->
  <defs>
    <style>
      .st0 {
        fill: #eae3d9;
      }

      .st1 {
        fill: #a794c6;
      }

      .st2 {
        fill: #d2c5e2;
      }

      .st3 {
        fill: #aea18a;
      }

      .st4 {
        fill: #d5c9b6;
      }

      .st5 {
        fill: #927cb8;
      }

      .st6 {
        fill: #bcacd5;
      }

      .st7 {
        fill: #e0d6c6;
      }
    </style>
  </defs>
  <g>
    <path class="st3" d="M94.3,82.1h-3v-6.3h.7v5.7h2.4v.6Z"/>
    <path class="st3" d="M97.8,81.8c-.1.1-.3.2-.5.3-.2,0-.5.1-.7.1s-.5,0-.7-.2-.4-.3-.5-.5c-.1-.2-.2-.5-.3-.7,0-.3,0-.6,0-1,0-.8.1-1.4.4-1.8.3-.4.7-.6,1.2-.6s.3,0,.5,0,.3.1.4.3.2.3.3.5c0,.2.1.5.1.9s0,.2,0,.3c0,.1,0,.2,0,.4h-2.3c0,.3,0,.5,0,.7s.1.4.2.5.2.3.3.3c.1,0,.3.1.5.1s.3,0,.5,0c.2,0,.3-.1.4-.2l.2.5ZM97.3,79.4c0-.5,0-.8-.2-1-.1-.2-.3-.3-.6-.3s-.5.1-.7.3c-.2.2-.3.5-.3,1h1.7Z"/>
    <path class="st3" d="M98.8,75.8h.6v2.1h0c.2-.3.6-.5,1-.5s.8.2,1,.5c.2.4.3.9.3,1.7s-.2,1.4-.5,1.8c-.3.4-.7.6-1.3.6s-.5,0-.8,0c-.2,0-.4-.1-.5-.2v-6.1ZM99.5,81.4c0,0,.2,0,.3.1.1,0,.3,0,.4,0,.3,0,.6-.1.7-.4s.3-.8.3-1.4,0-.5,0-.7c0-.2,0-.4-.2-.5,0-.2-.2-.3-.3-.3-.1,0-.2-.1-.4-.1s-.4,0-.5.2c-.1.1-.2.3-.3.5v2.6Z"/>
    <path class="st3" d="M105.5,81.8c-.1.1-.3.2-.5.3-.2,0-.5.1-.7.1s-.5,0-.7-.2-.4-.3-.5-.5c-.1-.2-.2-.5-.3-.7,0-.3,0-.6,0-1,0-.8.1-1.4.4-1.8.3-.4.7-.6,1.2-.6s.3,0,.5,0,.3.1.4.3.2.3.3.5c0,.2.1.5.1.9s0,.2,0,.3c0,.1,0,.2,0,.4h-2.3c0,.3,0,.5,0,.7s.1.4.2.5.2.3.3.3c.1,0,.3.1.5.1s.3,0,.5,0c.2,0,.3-.1.4-.2l.2.5ZM105,79.4c0-.5,0-.8-.2-1-.1-.2-.3-.3-.6-.3s-.5.1-.7.3c-.2.2-.3.5-.3,1h1.7Z"/>
    <path class="st3" d="M108.9,82.1v-2.7c0-.5,0-.8-.2-1-.1-.2-.3-.3-.6-.3s-.4,0-.6.2c-.2.1-.3.3-.3.5v3.3h-.6v-4.5h.5v.5h.1c.1-.2.3-.3.5-.4.2-.1.4-.2.7-.2s.4,0,.5,0c.1,0,.3.1.4.3,0,.1.2.3.2.5,0,.2,0,.5,0,.8v2.9h-.6Z"/>
    <path class="st3" d="M110.5,81.4c.1,0,.3.1.4.2.2,0,.3,0,.5,0s.4,0,.5-.1.2-.3.2-.5,0-.3-.1-.5c0-.1-.2-.2-.3-.3-.1,0-.3-.2-.4-.3-.2,0-.3-.2-.4-.3-.1-.1-.2-.2-.3-.4,0-.2-.1-.4-.1-.6,0-.4.1-.7.3-.9s.5-.3.9-.3.5,0,.6,0c.2,0,.3.1.5.2l-.2.5c-.1,0-.2-.1-.4-.1s-.3,0-.5,0-.4,0-.5.1c0,0-.1.2-.1.4s0,.3.1.4c0,.1.2.2.3.3.1,0,.3.2.4.3.1,0,.3.2.4.3.1.1.2.3.3.4s.1.4.1.6,0,.3,0,.5c0,.2-.1.3-.2.4-.1.1-.2.2-.4.3-.2,0-.4,0-.6,0s-.5,0-.7,0c-.2,0-.4-.1-.5-.2l.2-.6Z"/>
    <path class="st3" d="M113.7,77.6h.5v.5h.1c.2-.4.6-.6,1-.6s.8.2,1.1.5c.2.4.4.9.4,1.7s0,.7-.1,1c0,.3-.2.6-.3.8-.1.2-.3.4-.5.5-.2.1-.4.2-.7.2s-.3,0-.4,0c-.1,0-.2,0-.3-.1v1.9h-.6v-6.3ZM114.3,81.4c0,0,.2.1.3.2s.2,0,.4,0c.3,0,.6-.2.8-.5.2-.3.3-.8.3-1.4s0-.5,0-.7c0-.2,0-.4-.2-.5,0-.1-.2-.3-.3-.3-.1,0-.2-.1-.4-.1-.4,0-.7.3-.8.8v2.5Z"/>
    <path class="st3" d="M117.7,77.6h.5v.5h.1c0-.2.2-.3.3-.4.1,0,.3-.1.5-.1s.3,0,.5,0v.7c-.3,0-.4,0-.5,0-.2,0-.3,0-.5.2-.1.1-.2.3-.2.4v3.3h-.6v-4.5Z"/>
    <path class="st3" d="M120.3,77.9c.2-.1.4-.2.6-.3.2,0,.5,0,.8,0s.5,0,.6.1c.2,0,.3.2.4.3s.1.3.2.4c0,.2,0,.3,0,.5,0,.4,0,.7,0,1.1,0,.3,0,.7,0,1s0,.4,0,.6c0,.2,0,.4,0,.6h-.5l-.2-.5h0c0,.2-.2.3-.4.4-.2.1-.4.2-.7.2s-.6-.1-.8-.3c-.2-.2-.3-.5-.3-.9s0-.5.1-.6c0-.2.2-.3.4-.4.2-.1.3-.2.6-.2s.5,0,.7,0h.2c0,0,.1,0,.2,0,0-.2,0-.4,0-.5,0-.3,0-.6-.2-.7-.1-.1-.3-.2-.6-.2s-.3,0-.5,0-.4.1-.5.2l-.2-.5ZM122.2,80c0,0-.1,0-.2,0,0,0-.1,0-.2,0-.1,0-.3,0-.4,0-.1,0-.3,0-.4.1-.1,0-.2.1-.3.2,0,.1,0,.2,0,.4,0,.2,0,.4.2.6s.3.2.4.2.4,0,.6-.2c.1-.1.2-.3.3-.4v-1Z"/>
    <path class="st3" d="M125,80.1h-.3v2h-.6v-6.3h.6v3.8h.3c0-.1,1.1-2,1.1-2h.7l-1.1,1.8-.3.3.4.4,1.2,2h-.8l-1.1-2Z"/>
    <path class="st3" d="M127.3,77.6h.5v-.9l.6-.2v1.1h1v.6h-1v2.7c0,.3,0,.5,0,.6,0,.1.2.2.3.2s.2,0,.3,0c0,0,.2,0,.3-.1v.5c0,0-.2.1-.3.2-.2,0-.3,0-.5,0-.3,0-.5,0-.6-.3-.1-.2-.2-.5-.2-.9v-2.8h-.5v-.6Z"/>
    <path class="st3" d="M130.3,76.2c0-.1,0-.3.1-.4s.2-.1.3-.1.2,0,.3.1.1.2.1.4,0,.3-.1.3-.2.1-.3.1-.2,0-.3-.1-.1-.2-.1-.3ZM130.4,77.6h.6v4.5h-.6v-4.5Z"/>
    <path class="st3" d="M132.2,81.4c.1,0,.3.1.4.2s.3,0,.5,0,.4,0,.5-.1c.1,0,.2-.3.2-.5s0-.3-.1-.5c0-.1-.2-.2-.3-.3-.1,0-.3-.2-.4-.3-.2,0-.3-.2-.4-.3-.1-.1-.2-.2-.3-.4,0-.2-.1-.4-.1-.6,0-.4.1-.7.3-.9s.5-.3.9-.3.5,0,.6,0c.2,0,.3.1.5.2l-.2.5c-.1,0-.2-.1-.4-.1-.2,0-.3,0-.5,0s-.4,0-.5.1c0,0-.1.2-.1.4s0,.3.1.4c0,.1.2.2.3.3.1,0,.3.2.4.3s.3.2.4.3c.1.1.2.3.3.4s.1.4.1.6,0,.3,0,.5c0,.2-.1.3-.2.4-.1.1-.2.2-.4.3-.2,0-.4,0-.6,0s-.5,0-.7,0c-.2,0-.4-.1-.5-.2l.2-.6Z"/>
    <path class="st3" d="M137.9,81.9c-.2.1-.3.2-.5.3-.2,0-.4,0-.6,0s-.5,0-.7-.2c-.2-.1-.4-.3-.5-.5s-.2-.5-.3-.7,0-.6,0-1c0-.8.1-1.4.4-1.8.3-.4.7-.6,1.2-.6s.4,0,.6,0,.3,0,.4.2l-.2.6c-.2-.1-.5-.2-.8-.2s-.6.1-.7.4-.2.7-.2,1.3,0,.5,0,.7c0,.2,0,.4.2.6,0,.2.2.3.3.4s.3.1.5.1.3,0,.4,0c.1,0,.2-.1.3-.2l.2.5Z"/>
    <path class="st3" d="M141,82.1v-2.7c0-.4,0-.7-.1-1,0-.2-.3-.3-.6-.3s-.4,0-.6.2c-.2.1-.3.3-.3.6v3.2h-.6v-6.3h.6v2.2h0c.1-.2.3-.3.4-.4.2,0,.4-.1.7-.1s.4,0,.5,0c.1,0,.3.1.4.3s.2.3.2.5c0,.2,0,.5,0,.8v2.9h-.6Z"/>
    <path class="st3" d="M145.4,81.8c-.1.1-.3.2-.5.3-.2,0-.5.1-.7.1s-.5,0-.7-.2-.4-.3-.5-.5c-.1-.2-.2-.5-.3-.7,0-.3,0-.6,0-1,0-.8.1-1.4.4-1.8.3-.4.7-.6,1.2-.6s.3,0,.5,0,.3.1.4.3.2.3.3.5c0,.2.1.5.1.9s0,.2,0,.3c0,.1,0,.2,0,.4h-2.3c0,.3,0,.5,0,.7s.1.4.2.5.2.3.3.3.3.1.5.1.3,0,.5,0c.2,0,.3-.1.4-.2l.2.5ZM144.9,79.4c0-.5,0-.8-.2-1s-.3-.3-.6-.3-.5.1-.7.3-.3.5-.3,1h1.7Z"/>
    <path class="st3" d="M151.5,77.2c0,.2,0,.3,0,.5,0,.2,0,.3-.2.4,0,.1-.2.3-.3.4-.1.1-.3.2-.4.2h0c.1,0,.3.1.4.2.1,0,.2.2.4.3.1.1.2.3.2.5,0,.2,0,.4,0,.6s0,.6-.2.8c-.1.2-.2.4-.4.6-.2.2-.4.3-.6.3s-.5.1-.7.1h-.3c-.1,0-.2,0-.4,0-.1,0-.3,0-.4,0s-.2,0-.3,0v-6.2c.2,0,.4,0,.6,0s.5,0,.8,0,.4,0,.6,0,.4.1.5.2c.2.1.3.3.4.5,0,.2.1.5.1.8ZM149.4,78.6c0,0,.2,0,.3,0,.1,0,.2,0,.3,0,.2,0,.4-.2.6-.4s.2-.4.2-.7,0-.4,0-.5c0-.1-.1-.2-.2-.3,0,0-.2-.1-.3-.2s-.3,0-.4,0-.3,0-.4,0c-.1,0-.2,0-.3,0v2.2h.4ZM149.8,81.6c.2,0,.3,0,.5,0,.1,0,.3-.1.4-.2.1-.1.2-.2.2-.4,0-.1,0-.3,0-.5s0-.4-.1-.6c0-.2-.2-.3-.3-.4s-.3-.1-.4-.2c-.2,0-.3,0-.5,0h-.6v2.3s0,0,.1,0c0,0,.1,0,.2,0,0,0,.1,0,.2,0,0,0,.1,0,.2,0Z"/>
    <path class="st3" d="M155.4,81.8c-.1.1-.3.2-.5.3-.2,0-.5.1-.7.1s-.5,0-.7-.2-.4-.3-.5-.5-.2-.5-.3-.7c0-.3,0-.6,0-1,0-.8.1-1.4.4-1.8.3-.4.7-.6,1.2-.6s.3,0,.5,0,.3.1.4.3.2.3.3.5c0,.2.1.5.1.9s0,.2,0,.3c0,.1,0,.2,0,.4h-2.3c0,.3,0,.5,0,.7s.1.4.2.5.2.3.3.3c.1,0,.3.1.5.1s.3,0,.5,0c.2,0,.3-.1.4-.2l.2.5ZM154.9,79.4c0-.5,0-.8-.2-1-.1-.2-.3-.3-.6-.3s-.5.1-.7.3c-.2.2-.3.5-.3,1h1.7Z"/>
    <path class="st3" d="M159.4,82.3c0,.6-.1,1-.4,1.3-.3.3-.6.4-1.1.4s-.5,0-.7,0c-.2,0-.3-.1-.5-.2l.2-.6c.1,0,.3.1.4.2.1,0,.3,0,.5,0,.4,0,.6-.1.8-.3.1-.2.2-.5.2-1v-.3h0c0,.1-.2.2-.4.3-.1,0-.3.1-.6.1-.5,0-.8-.2-1.1-.6s-.3-1-.3-1.8.1-1.4.4-1.8c.3-.4.7-.6,1.3-.6s.5,0,.7,0,.4.1.5.2v4.5ZM158.7,78.2c-.2,0-.4-.1-.7-.1s-.6.1-.7.4c-.2.3-.3.7-.3,1.3s0,.5,0,.7c0,.2,0,.4.2.6s.2.3.3.4.2.1.4.1.4,0,.5-.2c.1-.1.2-.3.3-.5v-2.6Z"/>
    <path class="st3" d="M161.1,81c0,.2,0,.4,0,.5,0,0,.1.1.2.1s.3,0,.4,0v.5s-.1,0-.3.1c-.1,0-.3,0-.4,0-.2,0-.4,0-.6-.2s-.2-.4-.2-.7v-5.4h.6v5.2Z"/>
    <path class="st3" d="M165.3,81.8c-.1.1-.3.2-.5.3-.2,0-.5.1-.7.1s-.5,0-.7-.2-.4-.3-.5-.5c-.1-.2-.2-.5-.3-.7s0-.6,0-1c0-.8.1-1.4.4-1.8s.7-.6,1.2-.6.3,0,.5,0c.2,0,.3.1.4.3.1.1.2.3.3.5,0,.2.1.5.1.9s0,.2,0,.3c0,.1,0,.2,0,.4h-2.3c0,.3,0,.5,0,.7,0,.2.1.4.2.5s.2.3.3.3c.1,0,.3.1.5.1s.3,0,.5,0c.2,0,.3-.1.4-.2l.2.5ZM164.8,79.4c0-.5,0-.8-.2-1-.1-.2-.3-.3-.6-.3s-.5.1-.7.3c-.2.2-.3.5-.3,1h1.7Z"/>
    <path class="st3" d="M166.3,76.2c0-.1,0-.3.1-.4,0,0,.2-.1.3-.1s.2,0,.3.1.1.2.1.4,0,.3-.1.3-.2.1-.3.1-.2,0-.3-.1c0,0-.1-.2-.1-.3ZM166.4,77.6h.6v4.5h-.6v-4.5Z"/>
    <path class="st3" d="M167.9,77.6h.5v-.9l.6-.2v1.1h1v.6h-1v2.7c0,.3,0,.5,0,.6,0,.1.2.2.3.2s.2,0,.3,0c0,0,.2,0,.3-.1v.5c0,0-.2.1-.3.2-.2,0-.3,0-.5,0-.3,0-.5,0-.6-.3-.1-.2-.2-.5-.2-.9v-2.8h-.5v-.6Z"/>
    <path class="st3" d="M173.5,81.8c-.1.1-.3.2-.5.3-.2,0-.5.1-.7.1s-.5,0-.7-.2-.4-.3-.5-.5c-.1-.2-.2-.5-.3-.7,0-.3,0-.6,0-1,0-.8.1-1.4.4-1.8.3-.4.7-.6,1.2-.6s.3,0,.5,0,.3.1.4.3.2.3.3.5c0,.2.1.5.1.9s0,.2,0,.3c0,.1,0,.2,0,.4h-2.3c0,.3,0,.5,0,.7s.1.4.2.5.2.3.3.3.3.1.5.1.3,0,.5,0c.2,0,.3-.1.4-.2l.2.5ZM173,79.4c0-.5,0-.8-.2-1s-.3-.3-.6-.3-.5.1-.7.3-.3.5-.3,1h1.7Z"/>
    <path class="st3" d="M174.6,77.6h.5v.5h.1c0-.2.2-.3.3-.4.1,0,.3-.1.5-.1s.3,0,.5,0v.7c-.3,0-.4,0-.5,0-.2,0-.3,0-.5.2-.1.1-.2.3-.2.4v3.3h-.6v-4.5Z"/>
    <path class="st3" d="M177.2,76.2c0-.1,0-.3.1-.4s.2-.1.3-.1.2,0,.3.1c0,0,.1.2.1.4s0,.3-.1.3c0,0-.2.1-.3.1s-.2,0-.3-.1-.1-.2-.1-.3ZM177.3,77.6h.6v4.5h-.6v-4.5Z"/>
    <path class="st3" d="M181.4,82.1v-2.7c0-.5,0-.8-.2-1s-.3-.3-.6-.3-.4,0-.6.2c-.2.1-.3.3-.3.5v3.3h-.6v-4.5h.5v.5h.1c.1-.2.3-.3.5-.4.2-.1.4-.2.7-.2s.4,0,.5,0c.1,0,.3.1.4.3,0,.1.2.3.2.5,0,.2,0,.5,0,.8v2.9h-.6Z"/>
  </g>
  <path class="st3" d="M90.9,89.1h.5v-.3c0-.6,0-1,.2-1.2.2-.3.4-.4.8-.4s.3,0,.4,0c.1,0,.3,0,.4.1l-.2.6c-.1,0-.2,0-.3,0,0,0-.2,0-.3,0-.1,0-.2,0-.3,0,0,0-.1.1-.1.2,0,.1,0,.2,0,.4,0,.2,0,.4,0,.6h.9v.6h-.9v3.9h-.6v-3.9h-.5v-.6ZM94.3,89.1v2.8c0,.5,0,.8.1,1,0,.2.3.3.5.3s.2,0,.3,0c0,0,.2-.1.3-.2,0,0,.1-.2.2-.3,0-.1.1-.2.1-.3v-3.1h.6v3.2c0,.2,0,.4,0,.7,0,.2,0,.4,0,.6h-.5l-.2-.6h0c-.1.2-.2.4-.4.5-.2.1-.4.2-.7.2s-.4,0-.5,0c-.1,0-.3-.1-.4-.3-.1-.1-.2-.3-.2-.5,0-.2,0-.5,0-.8v-2.9h.6ZM94,87.7c0-.1,0-.2.1-.3,0,0,.2-.1.3-.1s.2,0,.3.1c0,0,.1.2.1.3s0,.2-.1.3c0,0-.2.1-.3.1s-.2,0-.3-.1c0,0-.1-.2-.1-.3ZM95.5,87.7c0-.1,0-.2.1-.3,0,0,.2-.1.3-.1s.2,0,.3.1c0,0,.1.2.1.3s0,.2-.1.3c0,0-.2.1-.3.1s-.2,0-.3-.1c0,0-.1-.2-.1-.3ZM97.7,89.1h.5v.5h.1c0-.2.2-.3.3-.4s.3-.1.5-.1.3,0,.5,0v.7c-.3,0-.4,0-.5,0-.2,0-.3,0-.5.2-.1.1-.2.3-.2.4v3.3h-.6v-4.5ZM102.2,89.1h.6v4.7c0,.6,0,1.1-.3,1.3-.2.3-.5.4-1,.3v-.6c.1,0,.2,0,.3,0s.1-.1.2-.2c0-.1,0-.2,0-.4,0-.2,0-.4,0-.6v-4.5ZM102.1,87.7c0-.1,0-.3.1-.4,0,0,.2-.1.3-.1s.2,0,.3.1c0,0,.1.2.1.4s0,.3-.1.3c0,0-.2.1-.3.1s-.2,0-.3-.1c0,0-.1-.2-.1-.3ZM104.6,89.1v2.8c0,.5,0,.8.1,1,0,.2.3.3.5.3s.2,0,.3,0c0,0,.2-.1.3-.2,0,0,.1-.2.2-.3,0-.1.1-.2.1-.3v-3.1h.6v3.2c0,.2,0,.4,0,.7,0,.2,0,.4,0,.6h-.5l-.2-.6h0c-.1.2-.2.4-.4.5-.2.1-.4.2-.7.2s-.4,0-.5,0c-.1,0-.3-.1-.4-.3-.1-.1-.2-.3-.2-.5,0-.2,0-.5,0-.8v-2.9h.6ZM110.3,93.6v-2.7c0-.5,0-.8-.2-1-.1-.2-.3-.3-.6-.3s-.4,0-.6.2c-.2.1-.3.3-.3.5v3.3h-.6v-4.5h.5v.5h.1c.1-.2.3-.3.5-.4.2-.1.4-.2.7-.2s.4,0,.5,0c.1,0,.3.1.4.3,0,.1.2.3.2.5,0,.2,0,.5,0,.8v2.9h-.6ZM114.9,93.8c0,.6-.1,1-.4,1.3-.3.3-.6.4-1.1.4s-.5,0-.7,0c-.2,0-.3-.1-.5-.2l.2-.6c.1,0,.3.1.4.2.1,0,.3,0,.5,0,.4,0,.6-.1.8-.3.1-.2.2-.5.2-1v-.3h0c0,.1-.2.2-.4.3-.2,0-.3.1-.6.1-.5,0-.8-.2-1.1-.6-.2-.4-.3-1-.3-1.8s.1-1.4.4-1.8c.3-.4.7-.6,1.3-.6s.5,0,.7,0c.2,0,.4.1.5.2v4.5ZM114.2,89.7c-.2,0-.4-.1-.7-.1s-.6.1-.7.4c-.2.3-.3.7-.3,1.3s0,.5,0,.7c0,.2,0,.4.2.6,0,.2.2.3.3.4.1,0,.2.1.4.1s.4,0,.5-.2c.1-.1.2-.3.3-.5v-2.6ZM118.7,93.3c-.1.1-.3.2-.5.3-.2,0-.5.1-.7.1s-.5,0-.7-.2c-.2-.1-.4-.3-.5-.5-.1-.2-.2-.5-.3-.7,0-.3,0-.6,0-1,0-.8.1-1.4.4-1.8.3-.4.7-.6,1.2-.6s.3,0,.5,0c.2,0,.3.1.4.3.1.1.2.3.3.5,0,.2.1.5.1.9s0,.2,0,.3c0,.1,0,.2,0,.4h-2.3c0,.3,0,.5,0,.7,0,.2.1.4.2.5,0,.1.2.3.3.3.1,0,.3.1.5.1s.3,0,.5,0c.2,0,.3-.1.4-.2l.2.5ZM118.2,90.9c0-.4,0-.8-.2-1-.1-.2-.3-.3-.6-.3s-.5.1-.7.3c-.2.2-.3.5-.3,1h1.7ZM121.7,87.3h2.8v.6h-2.1v2.2h2v.6h-2v2.8h-.7v-6.3ZM125.3,89.1h.5v.5h.1c0-.2.2-.3.3-.4s.3-.1.5-.1.3,0,.5,0v.7c-.3,0-.4,0-.5,0-.2,0-.3,0-.5.2-.1.1-.2.3-.2.4v3.3h-.6v-4.5ZM127.9,89.4c.2-.1.4-.2.6-.3.2,0,.5,0,.8,0s.5,0,.6.1c.2,0,.3.2.4.3,0,.1.1.3.2.4,0,.2,0,.3,0,.5,0,.4,0,.7,0,1.1s0,.7,0,1,0,.4,0,.6c0,.2,0,.4,0,.6h-.5l-.2-.5h0c0,.2-.2.3-.4.4s-.4.2-.7.2-.6-.1-.8-.3c-.2-.2-.3-.5-.3-.9s0-.5.1-.6c0-.2.2-.3.4-.4.2-.1.3-.2.6-.2.2,0,.5,0,.7,0h.2c0,0,.1,0,.2,0,0-.2,0-.4,0-.5,0-.3,0-.6-.2-.7-.1-.1-.3-.2-.6-.2s-.3,0-.5,0c-.2,0-.4.1-.5.2l-.2-.5ZM129.8,91.5c0,0-.1,0-.2,0,0,0-.1,0-.2,0-.1,0-.3,0-.4,0-.1,0-.3,0-.4.1-.1,0-.2.1-.3.2,0,.1,0,.2,0,.4,0,.2,0,.4.2.6.1.1.3.2.4.2s.4,0,.6-.2c.1-.1.2-.3.3-.4v-1ZM132.2,89.1v2.8c0,.5,0,.8.1,1,0,.2.3.3.5.3s.2,0,.3,0c0,0,.2-.1.3-.2,0,0,.1-.2.2-.3,0-.1.1-.2.1-.3v-3.1h.6v3.2c0,.2,0,.4,0,.7,0,.2,0,.4,0,.6h-.5l-.2-.6h0c-.1.2-.2.4-.4.5-.2.1-.4.2-.7.2s-.4,0-.5,0c-.1,0-.3-.1-.4-.3-.1-.1-.2-.3-.2-.5,0-.2,0-.5,0-.8v-2.9h.6ZM138.3,93.3c-.1.1-.3.2-.5.3-.2,0-.5.1-.7.1s-.5,0-.7-.2c-.2-.1-.4-.3-.5-.5-.1-.2-.2-.5-.3-.7,0-.3,0-.6,0-1,0-.8.1-1.4.4-1.8.3-.4.7-.6,1.2-.6s.3,0,.5,0c.2,0,.3.1.4.3.1.1.2.3.3.5,0,.2.1.5.1.9s0,.2,0,.3c0,.1,0,.2,0,.4h-2.3c0,.3,0,.5,0,.7,0,.2.1.4.2.5,0,.1.2.3.3.3.1,0,.3.1.5.1s.3,0,.5,0c.2,0,.3-.1.4-.2l.2.5ZM137.8,90.9c0-.4,0-.8-.2-1-.1-.2-.3-.3-.6-.3s-.5.1-.7.3c-.2.2-.3.5-.3,1h1.7ZM141.6,93.6v-2.7c0-.5,0-.8-.2-1-.1-.2-.3-.3-.6-.3s-.4,0-.6.2c-.2.1-.3.3-.3.5v3.3h-.6v-4.5h.5v.5h.1c.1-.2.3-.3.5-.4.2-.1.4-.2.7-.2s.4,0,.5,0c.1,0,.3.1.4.3,0,.1.2.3.2.5,0,.2,0,.5,0,.8v2.9h-.6ZM145.2,87.7c0-.1,0-.3.1-.4,0,0,.2-.1.3-.1s.2,0,.3.1c0,0,.1.2.1.4s0,.3-.1.3c0,0-.2.1-.3.1s-.2,0-.3-.1c0,0-.1-.2-.1-.3ZM145.3,89.1h.6v4.5h-.6v-4.5ZM149.4,93.6v-2.7c0-.5,0-.8-.2-1-.1-.2-.3-.3-.6-.3s-.4,0-.6.2c-.2.1-.3.3-.3.5v3.3h-.6v-4.5h.5v.5h.1c.1-.2.3-.3.5-.4.2-.1.4-.2.7-.2s.4,0,.5,0c.1,0,.3.1.4.3,0,.1.2.3.2.5,0,.2,0,.5,0,.8v2.9h-.6ZM153,92.8c.1,0,.3.2.5.2.2,0,.4.1.7.1s.6,0,.8-.2c.2-.2.3-.4.3-.8s0-.4-.2-.6c-.1-.2-.3-.3-.4-.5-.2-.1-.4-.3-.6-.4-.2-.1-.4-.3-.6-.5-.2-.2-.3-.4-.4-.6-.1-.2-.2-.5-.2-.8,0-.5.2-.9.5-1.1.3-.2.7-.4,1.2-.4s.6,0,.8,0c.2,0,.4.1.6.2l-.2.6c-.1,0-.3-.1-.5-.2-.2,0-.4,0-.7,0s-.6,0-.7.2c-.2.2-.2.4-.2.6s0,.4.2.6c.1.2.3.3.4.5.2.1.4.3.6.4.2.1.4.3.6.5.2.2.3.4.5.6.1.2.2.5.2.8,0,.5-.2.9-.5,1.2-.3.3-.8.4-1.3.4s-.7,0-.9,0c-.2,0-.4-.1-.6-.2l.2-.6ZM159.7,93.3c-.1.1-.3.2-.5.3-.2,0-.5.1-.7.1s-.5,0-.7-.2c-.2-.1-.4-.3-.5-.5-.1-.2-.2-.5-.3-.7,0-.3,0-.6,0-1,0-.8.1-1.4.4-1.8.3-.4.7-.6,1.2-.6s.3,0,.5,0c.2,0,.3.1.4.3.1.1.2.3.3.5,0,.2.1.5.1.9s0,.2,0,.3c0,.1,0,.2,0,.4h-2.3c0,.3,0,.5,0,.7,0,.2.1.4.2.5,0,.1.2.3.3.3.1,0,.3.1.5.1s.3,0,.5,0c.2,0,.3-.1.4-.2l.2.5ZM159.2,90.9c0-.4,0-.8-.2-1-.1-.2-.3-.3-.6-.3s-.5.1-.7.3c-.2.2-.3.5-.3,1h1.7ZM161.4,92.5c0,.2,0,.4,0,.4,0,0,.1.1.2.1s.3,0,.4,0v.5s-.1,0-.3.1c-.1,0-.3,0-.4,0-.2,0-.4,0-.6-.2-.1-.1-.2-.4-.2-.7v-5.4h.6v5.2ZM162.9,87.3h.6v2.1h0c.2-.3.6-.4,1-.4s.8.2,1,.5c.2.4.3.9.3,1.7s-.2,1.4-.5,1.8c-.3.4-.7.6-1.3.6s-.5,0-.8,0c-.2,0-.4-.1-.5-.2v-6.1ZM163.6,92.9c0,0,.2,0,.3.1.1,0,.3,0,.4,0,.3,0,.6-.1.7-.4.2-.3.3-.8.3-1.4s0-.5,0-.7c0-.2,0-.4-.2-.5,0-.1-.2-.3-.3-.3-.1,0-.2-.1-.4-.1s-.4,0-.5.2c-.1.1-.2.3-.3.5v2.6ZM166.8,92.9c.1,0,.3.1.4.2.2,0,.3,0,.5,0s.4,0,.5-.1c.1,0,.2-.3.2-.5s0-.3-.1-.5c0-.1-.2-.2-.3-.3-.1,0-.3-.2-.4-.3-.2,0-.3-.2-.4-.3-.1-.1-.2-.2-.3-.4,0-.2-.1-.4-.1-.6,0-.4.1-.7.3-.9.2-.2.5-.3.9-.3s.5,0,.6,0c.2,0,.3.1.5.2l-.2.5c-.1,0-.2-.1-.4-.1-.2,0-.3,0-.5,0s-.4,0-.5.1-.1.2-.1.4,0,.3.1.4c0,.1.2.2.3.3.1,0,.3.2.4.3.1,0,.3.2.4.3.1.1.2.3.3.4,0,.2.1.4.1.6s0,.3,0,.5c0,.2-.1.3-.2.4s-.2.2-.4.3c-.2,0-.4,0-.6,0s-.5,0-.7,0c-.2,0-.4-.1-.5-.2l.2-.6ZM169.7,89.1h.5v-.9l.6-.2v1.1h1v.6h-1v2.7c0,.3,0,.5,0,.6s.2.2.3.2.2,0,.3,0c0,0,.2,0,.3-.1v.5c0,0-.2.1-.3.2-.2,0-.3,0-.5,0-.3,0-.5,0-.6-.3-.1-.2-.2-.5-.2-.9v-2.8h-.5v-.6ZM175.8,89.1v4.5h-.6v-3.9h-1.4v3.9h-.6v-3.9h-.5v-.6h.5v-.3c0-.6.1-1,.3-1.2.2-.3.6-.4,1-.4s.6,0,.8,0c.2,0,.4.1.5.2l-.2.5c-.1,0-.3-.1-.5-.2-.2,0-.4,0-.6,0s-.3,0-.4,0c0,0-.2.1-.2.3,0,.1,0,.2-.1.4,0,.2,0,.3,0,.5h2ZM179.2,93.6v-2.7c0-.5,0-.8-.2-1-.1-.2-.3-.3-.6-.3s-.4,0-.6.2c-.2.1-.3.3-.3.5v3.3h-.6v-4.5h.5v.5h.1c.1-.2.3-.3.5-.4.2-.1.4-.2.7-.2s.4,0,.5,0c.1,0,.3.1.4.3,0,.1.2.3.2.5,0,.2,0,.5,0,.8v2.9h-.6ZM183.8,92.1c0,.3,0,.6,0,.8,0,.2,0,.5,0,.7h-.4v-.5h-.2c0,.2-.2.3-.4.4-.2.1-.4.2-.6.2-.5,0-.8-.2-1.1-.6-.2-.4-.4-1-.4-1.8s.1-1.4.4-1.7c.3-.4.7-.6,1.2-.6s.3,0,.4,0c.1,0,.2,0,.3.1v-1.9h.6v4.8ZM183.2,89.8c0,0-.2-.1-.3-.2-.1,0-.2,0-.4,0-.3,0-.6.1-.7.4-.2.3-.3.7-.3,1.3s0,.5,0,.7c0,.2,0,.4.2.6,0,.2.2.3.3.4.1,0,.2.1.4.1.4,0,.7-.3.8-.8v-2.5ZM185.5,89.1v2.8c0,.5,0,.8.1,1,0,.2.3.3.5.3s.2,0,.3,0c0,0,.2-.1.3-.2,0,0,.1-.2.2-.3,0-.1.1-.2.1-.3v-3.1h.6v3.2c0,.2,0,.4,0,.7,0,.2,0,.4,0,.6h-.5l-.2-.6h0c-.1.2-.2.4-.4.5-.2.1-.4.2-.7.2s-.4,0-.5,0c-.1,0-.3-.1-.4-.3-.1-.1-.2-.3-.2-.5,0-.2,0-.5,0-.8v-2.9h.6ZM191.2,93.6v-2.7c0-.5,0-.8-.2-1-.1-.2-.3-.3-.6-.3s-.4,0-.6.2c-.2.1-.3.3-.3.5v3.3h-.6v-4.5h.5v.5h.1c.1-.2.3-.3.5-.4.2-.1.4-.2.7-.2s.4,0,.5,0c.1,0,.3.1.4.3,0,.1.2.3.2.5,0,.2,0,.5,0,.8v2.9h-.6ZM195.8,93.8c0,.6-.1,1-.4,1.3-.3.3-.6.4-1.1.4s-.5,0-.7,0c-.2,0-.3-.1-.5-.2l.2-.6c.1,0,.3.1.4.2.1,0,.3,0,.5,0,.4,0,.6-.1.8-.3.1-.2.2-.5.2-1v-.3h0c0,.1-.2.2-.4.3-.2,0-.3.1-.6.1-.5,0-.8-.2-1.1-.6-.2-.4-.3-1-.3-1.8s.1-1.4.4-1.8.7-.6,1.3-.6.5,0,.7,0c.2,0,.4.1.5.2v4.5ZM195.1,89.7c-.2,0-.4-.1-.7-.1s-.6.1-.7.4c-.2.3-.3.7-.3,1.3s0,.5,0,.7c0,.2,0,.4.2.6,0,.2.2.3.3.4.1,0,.2.1.4.1s.4,0,.5-.2c.1-.1.2-.3.3-.5v-2.6Z"/>
  <path class="st4" d="M60.3,4.1c-.9-.5-1.8-.9-2.7-1.3C47.3-1.5,34.2-1,24.8,5.3c-1.9,1.2-3.6,2.8-4.8,4.7,1.1-.8,2.1-1.5,3.3-2,1.1-.5,2.3-1,3.6-1.4,4.7-1.6,9.4-2.1,14.4-1.8,4,.2,7.9.6,11.7,2,9.5,3.3,17,10.7,22.1,19.3,2.6,4.4,4.2,9.3,5.4,14.4.5-5.4-.3-10.8-2.3-15.9-3.4-8.5-9.6-16-17.8-20.3"/>
  <polygon class="st3" points="187.6 31.7 185.2 31.7 184.1 36.7 184.4 36.7 187.6 31.7"/>
  <g>
    <path class="st2" d="M24,51.6c.3.5.7,1,1.2,1.5,0-.2-.1-.4-.2-.6-.1-.6-.3-1.2-.4-1.8-1.2-5.7-.2-10.8,2.5-15.9-5.2,3.6-6.5,11.6-3.1,16.8"/>
    <path class="st6" d="M71.7,57.5c-5.5,7.4-15.1,9.9-23.7,7.3-1.5-.5-3.1-1.1-4.4-1.8-4.7-2.6-8.2-5.6-10.9-11.4-2-4.3-3.2-10.9-2.1-15.5.7-3.2,2.8-6.3,6-7.2,2-.6,4.3-.5,6.2.4.2,0,.4.2.4.2,0,0-.2-.6-.2-.7,0-.2-.1-.5-.2-.7-.2-.5-.3-1-.5-1.5-.3-.9-.7-1.8-1.2-2.7-3.4.3-7.1,1.6-9.6,4-3.1,3-4.4,7.4-4.6,11.6-.2,4.4.4,8.7,2.1,13,2.1,5.2,5.8,9.7,10.3,13.1,1.8,1.4,3.8,2.4,6,3.1,8,2.5,17.1,1,23.7-4.1,6.3-4.8,8.8-12.8,8.9-20.5,0-5.2-1-10.4-3.5-14.9,4,8.9,3,20.7-2.7,28.6"/>
    <path class="st2" d="M36.3,23.1c-4.2-.6-8.7,1.3-11.3,4.7-2,2.5-2.9,5.8-3.1,9,0,1,0,2.1.1,3.1.3-1,.5-2,.8-2.9.6-1.9,1.2-3.7,2.2-5.5,2.2-4.4,6.7-7.1,11.3-8.3"/>
    <path class="st2" d="M31.5,60.4c-.6-.8-1.2-1.7-1.7-2.5-1.6-2.5-2.2-5.1-2.6-8.1-1.3,1.8-1.3,4.3-.5,6.4.8,2,2.6,3.8,4.8,4.2"/>
    <path class="st0" d="M26.7,77.8c-4.7-7.1-10.3-13.6-14.9-20.6-1.7-2.6-3.4-5.6-4.2-8.6-1.4-5.6-2-11.2-1.1-16.9,1.7-10.8,8.1-20.6,16.4-27.8-4.4,1.7-8.3,4.5-11.6,7.8C1.8,21.2-2,35.8,1.1,48.9c.4,1.9,1.1,3.8,2,5.5.8,1.6,1.8,3.2,2.8,4.7,5.3,7.6,11.9,14.1,17.9,20.9,3.3,3.8,6.6,7.7,8.8,12.2.5,1,.9,2.1,1.2,3.1.1.5.3,1.1.3,1.7.2-1.7,0-3.5-.4-5.2-1.3-5.1-4.1-9.7-7-14.1"/>
    <path class="st1" d="M47.3,22.2c.4.4.7.9,1.1,1.3,0,0,0,0,0,0,1.7,2,3.5,3.9,5.4,5.7.3.3.6.5.8.8-3.8-6-9.2-14.5-10.6-19.8.2,2.7,1.2,6.5,2.5,9.7.3.7.5,1.5.8,2.3"/>
    <path class="st1" d="M47.1,34.5c.1.2.3.3.5.4.8.5,1.8.6,2.6,1-.8.3-1.5,1-1.3,1.9,0,.4.3.8.6,1.1.4.3,1,.3,1.5.2.3,0,.7-.1,1-.3,0,0,0,0,0,0,0,.9-.2,1.7,0,2.8l-.4-.5c-.4-.5-1-.8-1.6-1-.8-.4-1.6-.7-2-1.4-.5-.7-.5-1.6-.6-2.4,0-.7-.1-1.4-.5-2v.2ZM51,37.1c.2-.1.4-.2.6-.2.2.2.3.4.3.7-.1.1-.3.2-.5.3-.5.3-1.1.4-1.5.3.2-.5.6-.8,1.1-1.1M71.4,26.6c-4.1-7.8-9.9-13.7-17.9-16.6-2.6-.9-5.2-1.5-7.9-1.7,5.5,1.7,9.8,3.9,13.8,7.4,3.4,3,5.9,6.8,8,10.9,1.5,2.7,2.4,5.8,2.7,8.8.6,6.1-.9,12.4-4.6,17.3-1.7,2.3-4,4.3-6.7,5.3-5.5,2.2-11.9.7-16.4-3-1.1-.9-2.1-1.9-2.9-3-.8-1-1.5-2.2-2.1-3.4-.7-1.3-1.2-2.8-1.6-4.2-.7-3.1-1.3-7.5.6-10.2.5-.8,1.2-1.4,2.1-1.6.5-.1,1,0,1.5,0,.2,0,.4.1.6.2.3.1.6.2.9.4-.2,0-.4,0-.5-.1-.3,0-.6,0-.8,0-3.1-.2-3.3,4.2-3.3,4.2.7-1.2,1.8-1.8,2.8-1.2.5.3.7,1.2.8,1.7.2,1,.5,1.8,1,2.7.5.8,1.2,1.6,1.9,2.2,1.6,1.5,3.3,2.8,4.5,4.6.8,1.2,1.3,2.6,2.3,3.7.9,1.1,2.6,1.8,3.8,1.2,0,0,0,0,0,0,0,0-.7-.6-.8-.7-.3-.3-.5-.5-.8-.8-.5-.5-1-1.1-1.4-1.7-.9-1.3-1.6-2.6-2.3-4-.2-.4-.3-.8-.5-1.2-.1-.3-.3-.7-.3-1.1,0,0,2.5,4.4,4.8,6.9.5.7,1.1,1.2,1.8,1.8.2-.6.5-1.1,1-1.5.2-.2.5-.4.8-.5,0,0,.2-.1.3-.2.1-.1.2-.3.2-.5,0-.1-.3-.2-.5-.2-.4,0-.8.2-1.1.4,0,0-.2,0-.1,0,.2-.5.7-.8,1.2-.9.5,0,1,.2,1.1.7,0,.5-.2.9-.6,1.1-1,.5-1.5,1-1.9,1.9,0,0,.1,0,.1.1,0,0,.2.1.2.2.1,0,.3,0,.4,0,.1,0,.3,0,.4,0,.9-.2,1.6-.8,2.2-1.4.4-.5,1-1.2,1-1.9,0-.4-.3-.8-.5-1.1-.4-.5-.9-.9-1.1-1.5-1.9-5.7,1-9.6-2.6-14-.5-.6-1.1-1.3-1.9-1.9-1.5-1.3-3-2.8-4.3-4.3-.3-.4-.7-.7-1-1.1-.5-.6-1-1.2-1.4-1.7-3.4-4.3-6.2-9.1-8-14.3,0,.3,0,.6,0,.9.2,2.2.6,4.4,1.3,6.6.7,2.2,1.8,4.2,2.7,6.2,1,2.1,1.8,4.2,2.2,6.5.2,1,.2,1.9.3,2.9,0,.2,0,.3,0,.5,0,0,0,.5,0,.5,0,0,0,0-.1-.1,0,0-.2-.2-.3-.2,0,0,0,0,0,0-1.6-1.4-3.8-2.7-6.1-2.4-2.6.3-4.6,2.3-5.7,4.6-1.3,2.8-1.3,5.9-1,8.9.6,5.9,3.4,11.5,7.9,15.4,2.9,2.6,6.5,4.3,10.2,5,.2,0,.4,0,.6.1,5.7.9,11.6-.5,16.1-4.6,8.7-8,10.4-22,4.9-32.4"/>
    <path class="st3" d="M98.5,43.8c-.7,0-1.2,0-1.7,0h-3.2v-13.7h5.4c.7,0,1.4,0,2.2.1.8,0,1.6.2,2.4.5.8.2,1.5.6,2.2,1.1.6.5,1.2,1.2,1.6,2s.6,1.8.6,3.1-.2,2.4-.6,3.3c-.4.9-1,1.6-1.7,2.1s-1.4.9-2.3,1.1c-.8.2-1.7.4-2.5.5-.8,0-1.6,0-2.3,0M113.1,56.5s0,0,0,0c0,0,0,0,0,0-.1.2-.2.4-.3.5-.1.2-.3.3-.6.3-.3,0-.5,0-.7-.1-.3-.1-.6-.4-.7-.7-.2-.3-.3-.7-.5-1l-1.9-4.9-.3-.7c0-.1-.1-.3-.2-.4s-.1-.3-.2-.4c-.1-.3-.4-.7-.6-1.1-.3-.4-.7-.9-1.1-1.3-.5-.4-1-.9-1.6-1.3-.6-.4-1.4-.7-2.3-1h-.3c1-.1,2-.3,3-.6,1-.3,2-.7,2.8-1.3.8-.6,1.5-1.4,2.1-2.3.5-.9.8-2.2.8-3.6s-.3-2.5-.8-3.4c-.5-.9-1.1-1.6-1.9-2.1s-1.7-.9-2.7-1.2c-1-.3-2-.4-2.9-.5-1,0-1.9-.1-2.7-.1-.9,0-1.5,0-2.1,0h-2c-.8,0-1.7,0-2.5,0h-3c.3.1.5.2.8.3.2.1.3.4.5.7.2.3.2.8.2,1.4v24c0,.6,0,1-.2,1.3-.2.3-.3.5-.5.7-.2.1-.5.2-.8.2v.2c.4,0,.8,0,1.1,0,.3,0,.6,0,.9,0,.3,0,.5,0,.7,0s.4,0,.7,0c.3,0,.6,0,.9,0,.3,0,.7,0,1.1,0v-.2c-.3,0-.5,0-.7-.3-.2-.1-.4-.4-.5-.7-.2-.3-.2-.8-.2-1.4v-11.3h3.6c.2,0,.4,0,.6,0,.2,0,.5,0,.8,0,.8,0,1.5.2,2.2.4.7.2,1.3.6,1.9,1.1.6.5,1.2,1.2,1.7,2.1.5.9,1.1,1.9,1.6,3.2l.9,2.3c.1.4.3.8.5,1.3.2.5.4,1,.7,1.4.3.4.6.8,1,1.2.4.4.9.6,1.5.7.7.1,1.4,0,1.8-.4s.8-.9.8-1.5h0c0,0,0,0,0,.1"/>
    <path class="st3" d="M133.4,51.9c-.2,1.2-.7,2.2-1.4,3-.7.9-1.6,1.5-2.8,2-.9.4-1.8.6-2.8.6s-1.8-.2-2.7-.5c-.9-.3-1.7-.7-2.4-1.3-.7-.5-1.4-1.2-2-1.9-.6-.7-1.1-1.5-1.5-2.3-.5-1-.8-2.2-1-3.5-.2-1.3-.2-2.5,0-3.7.2-1.2.6-2.3,1.3-3.4.7-1,1.6-1.8,2.8-2.3.8-.3,1.7-.5,2.7-.5s1.6.1,2.4.4c.8.3,1.6.6,2.3,1.1.7.5,1.4,1.1,2.1,1.8.6.7,1.2,1.5,1.6,2.5.7,1.5,1.1,2.9,1.3,4.2.2,1.4.2,2.6,0,3.8M132.6,40.3c-1-1-2.1-1.7-3.4-2.3-1.3-.6-2.7-.8-4.2-.8s-2.8.3-4.1.8c-1.3.6-2.4,1.3-3.4,2.3-1,1-1.7,2.1-2.3,3.4-.6,1.3-.8,2.7-.8,4.2s.3,2.9.8,4.2,1.3,2.4,2.3,3.4c1,1,2.1,1.7,3.4,2.3,1.3.6,2.7.8,4.1.8s2.9-.3,4.2-.8c1.3-.6,2.4-1.3,3.4-2.3,1-1,1.7-2.1,2.3-3.4.6-1.3.8-2.7.8-4.2s-.3-2.9-.8-4.2c-.6-1.3-1.3-2.5-2.3-3.4"/>
    <path class="st3" d="M173.2,57c-.1.1-.3.3-.4.4-.2.1-.4.2-.7.2-.4,0-.7-.2-.8-.7,0-.5-.2-1-.2-1.6v-7.6c0-1.7-.1-3.2-.4-4.4-.3-1.2-.8-2.3-1.5-3.1-.4-.5-.9-.9-1.4-1.2-.5-.3-1.1-.6-1.6-.8-.6-.2-1.1-.3-1.7-.4-.6,0-1.1-.1-1.6-.1-.9,0-1.6.2-2.4.5-.7.3-1.3.7-1.9,1.2-.5.5-1,1-1.4,1.5-.4.5-.7,1-.9,1.5-.3-.8-.7-1.5-1.2-2-.4-.5-.9-.9-1.4-1.3-.5-.3-1.1-.6-1.6-.8-.6-.2-1.1-.4-1.7-.5-.6,0-1.1-.1-1.6,0-.8,0-1.5.2-2.1.5-.6.3-1.2.6-1.7.9-.5.4-.9.8-1.3,1.2s-.6.8-.7,1.1v-.2s0,0,0,0c0,0,0,0,0,0h0c0-.4,0-.8-.2-1.2-.1-.4-.2-.8-.4-1.1-.2-.3-.4-.6-.7-.8-.3-.2-.7-.3-1.1-.3s-.5,0-.6,0c-.1,0-.3,0-.6.2-.7.3-1.2.9-1.3,1.6h0c0-.2.2-.4.3-.6.1-.1.3-.3.4-.4.2-.1.4-.2.7-.2s.4,0,.6.2c.2.2.3.5.3.9,0,.4,0,.8,0,1.2v15.3c0,.6,0,1-.2,1.3-.2.3-.3.5-.5.7-.2.1-.5.2-.8.2v.2c.4,0,.8,0,1.1,0,.3,0,.6,0,.9,0,.3,0,.6,0,.7,0s.4,0,.7,0c.3,0,.6,0,.9,0,.3,0,.7,0,1.1,0v-.2c-.3,0-.5,0-.7-.3-.2-.1-.4-.4-.5-.7-.2-.3-.2-.8-.2-1.4v-13.1c.5-1.2,1.3-2.2,2.3-2.9,1-.8,2.1-1.2,3.3-1.2s2.3.3,3.1.8c.8.5,1.4,1.2,1.9,2.1.5.9.8,1.9.9,3,.2,1.1.2,2.2.2,3.3v8.1c0,.6,0,1-.2,1.3-.2.3-.3.5-.5.7-.2.1-.5.2-.8.2v.2c.4,0,.8,0,1.1,0,.3,0,.6,0,.9,0,.3,0,.6,0,.7,0s.4,0,.7,0c.3,0,.6,0,.9,0,.3,0,.7,0,1.1,0v-.2c-.3,0-.5,0-.7-.3-.2-.1-.3-.4-.5-.7-.2-.3-.2-.8-.2-1.4v-8c0-.9,0-1.7-.1-2.4,0-.7-.2-1.4-.3-2.1.3-.8.7-1.6,1.2-2.2.5-.6,1-1.1,1.5-1.5.5-.4,1.1-.7,1.6-.8.6-.2,1.1-.3,1.5-.3,1.3,0,2.3.3,3.2.8.8.5,1.5,1.2,1.9,2.1.5.9.8,1.9.9,3,.2,1.1.3,2.2.3,3.3v7.3c0,.4,0,.7.2,1.1,0,.4.2.7.4,1,.2.3.4.5.7.7.3.2.7.3,1.1.3s.3,0,.4,0c.1,0,.2,0,.4,0,.4-.1.8-.3,1.1-.6.3-.3.5-.7.6-1.1h0c0,.2-.2.4-.3.6"/>
    <path class="st3" d="M180.3,39.6c1-1.1,2.4-1.6,4.2-1.6s2.2.3,3.1.9c.9.6,1.5,1.3,1.9,2,.4.7.4,1.4.2,2-.2.6-.9.9-1.9.9h-9.6c.4-1.7,1.1-3.1,2.1-4.1M189.1,57c-1,.5-1.9.7-2.9.7s-1.6-.2-2.4-.5c-.8-.3-1.5-.8-2.1-1.3-.6-.6-1.2-1.2-1.7-2-.5-.8-.9-1.6-1.2-2.5-.4-1-.7-2.1-.8-3.4-.1-1.2-.1-2.5,0-3.7v-.3h14.3c-.2-1-.4-1.9-.8-2.7-.4-.8-.9-1.6-1.5-2.2-.6-.6-1.4-1.1-2.3-1.4-.9-.3-1.9-.5-3.1-.5s-2.4.3-3.5.8c-1.1.6-2,1.3-2.8,2.3-.8,1-1.4,2.1-1.9,3.4-.5,1.3-.7,2.7-.7,4.1s.2,2.8.7,4.1c.5,1.3,1.1,2.4,1.9,3.4.8,1,1.7,1.7,2.8,2.3,1.1.6,2.2.8,3.5.8s1.1,0,1.7,0c.6,0,1.2-.2,1.8-.4.6-.2,1.3-.6,1.9-1,.6-.5,1.3-1.2,2-2.1h-.6c-.5.8-1.2,1.4-2.2,1.9"/>
  </g>
  <polygon class="st5" points="118 25.1 120.6 28.5 123.1 25.1 123.1 33.4 124.2 33.4 124.2 21.6 120.6 26.6 116.9 21.6 116.9 33.4 118 33.4 118 25.1"/>
  <polygon class="st5" points="132.5 32.3 128.7 32.3 128.7 28.2 132.5 28.2 132.5 27.1 128.7 27.1 128.7 23.1 132.5 23.1 132.5 21.9 127.5 21.9 127.5 33.4 132.5 33.4 132.5 32.3"/>
  <polygon class="st5" points="140.1 32.3 136.3 32.3 136.3 21.9 135.2 21.9 135.2 33.4 140.1 33.4 140.1 32.3"/>
  <path class="st5" d="M145.8,24.6l2.3,6.2h-4.6l2.3-6.2ZM143.1,31.8h5.4l.6,1.7h1.2l-4.5-11.9-4.5,11.9h1.2l.6-1.7Z"/>
  <polygon class="st5" points="153.3 25.7 158.1 33.8 158.1 21.9 157 21.9 157 29.7 152.1 21.6 152.1 33.4 153.3 33.4 153.3 25.7"/>
  <rect class="st5" x="161.5" y="21.9" width="1.1" height="11.5"/>
  <polygon class="st5" points="170.9 32.3 167.1 32.3 167.1 28.2 170.9 28.2 170.9 27.1 167.1 27.1 167.1 23.1 170.9 23.1 170.9 21.9 165.9 21.9 165.9 33.4 170.9 33.4 170.9 32.3"/>
  <path class="st7" d="M35.1,7.8c-7.6,1.3-13.9,6.1-17.3,12.9-3.3,6.5-4.9,13.9-4.7,21.2-.1,5.3.2,10.1,1.4,15.3-3.3-4.2-4.8-9.8-5.4-15-.6-5.4-.3-11.1,1.4-16.3,3.4-10.2,13.6-19,24.6-18.1"/>
</svg>