<?xml version="1.0" encoding="UTF-8"?>
<svg id="Ebene_1" xmlns="http://www.w3.org/2000/svg" version="1.1" viewBox="0 0 488.4 253.6">
  <!-- Generator: Adobe Illustrator 30.1.0, SVG Export Plug-In . SVG Version: 2.1.1 Build 136)  -->
  <defs>
    <style>
      .st0 {
        fill: #eae3d9;
      }

      .st1 {
        fill: #a794c6;
      }

      .st2 {
        fill: #1d1d1b;
      }

      .st3 {
        fill: #aea18a;
      }

      .st4 {
        fill: #d9cebc;
      }

      .st5 {
        fill: #b8a9d3;
      }

      .st6 {
        fill: #cabedf;
      }

      .st7 {
        fill: #977fb9;
      }

      .st8 {
        fill: #e0d6c6;
      }
    </style>
  </defs>
  <g>
    <path class="st6" d="M63.1,134.9c.9,1.4,1.9,2.7,3.1,3.9-.1-.5-.3-1.1-.4-1.6-.4-1.5-.8-3.2-1.1-4.7-3.2-15-.6-28.2,6.6-41.6-13.7,9.4-17,30.2-8.2,44"/>
    <path class="st5" d="M190,150.1c-14.4,19.3-41.5,26.3-64.1,19.4-3.9-1.2-7.7-3-11.3-5-12.4-6.7-21.9-17.7-28.8-29.9-6.4-10.7-8.4-28.5-5.5-40.6,1.9-8.4,7.3-16.3,15.8-18.9,5.3-1.7,11.4-1.3,16.4.9.5.2.9.4,1.4.7-.4-1.4-.9-2.8-1.3-4.2-.1-.5-.3-.8-.5-1.2-1.4-3.2-3-6.1-4.8-9-9,.8-17.8,4-24.5,10.3-8.2,7.8-11.5,19.3-12.1,30.2-.5,11.6.5,23.4,5.2,34.1,6.2,13.3,15.5,25.1,27.3,33.9,4.8,3.5,10.1,6.4,15.8,8.2,21,6.5,45,2.6,62.5-10.8,16.6-12.5,24.5-33.6,24.9-53.7.3-13.5-2.5-27.2-9.2-38.9,10.5,23.4,8,54-7.2,74.7"/>
    <path class="st6" d="M95.4,60.4c-11-1.5-22.8,3.5-29.9,12.2-5.3,6.6-7.7,15.1-8.2,23.4-.1,2.7,0,5.4.3,8.2.7-2.6,1.4-5.2,2.2-7.7,1.5-5,3.3-9.8,5.7-14.3,5.9-11.5,17.6-18.5,29.8-21.7"/>
    <path class="st6" d="M82.9,158c-1.5-2.1-3.1-4.3-4.4-6.5-4.1-6.7-5.7-13.4-6.8-21.1-3.4,4.8-3.5,11.3-1.3,16.6,2.2,5.3,6.8,10,12.5,11"/>
    <path class="st4" d="M158.6,10.8c-2.4-1.2-4.8-2.4-7.2-3.4-27-11.3-61.4-10-86.1,6.4-4.9,3.2-9.6,7.3-12.6,12.2,2.8-2.1,5.6-3.8,8.7-5.3,3-1.4,6.2-2.5,9.3-3.6,12.3-4.2,24.8-5.5,37.8-4.8,10.5.5,20.8,1.7,30.7,5.1,25,8.7,44.8,28,58,50.5,6.8,11.6,11,24.4,14.2,37.5,1.2-14-.8-28.3-6-41.5-9-22.3-25.4-41.9-46.9-53.2"/>
    <path class="st8" d="M27.8,69.6c-5.5,16.6-5.5,34.6-1.9,51.6,1.4,6.7,3.5,13.4,6.8,19.5,1.6,3,3.4,5.9,5.5,8.6-1-5-2.1-9.7-2.7-14.7-.8-6.4-1-12.8-1-19.3v-4.9c-.3-12.6,1.3-25.1,5.1-37,3.7-11.7,8.9-23.4,17.6-32.2,5.6-5.7,12.6-9.8,20.2-12.4,0,0-.1-.1-.1-.1,0,0,.2,0,.3,0,4.6-1.5,9.3-2.5,14.1-2.9-28.5-5.2-55.4,17.6-63.9,43.7"/>
    <path class="st2" d="M77.5,28.8s0,0,.1,0c0,0-.2,0-.3,0,0,0,0,0,.1.1"/>
    <path class="st0" d="M70.2,203.2c-12.4-18.6-27-35.5-39.3-53.9-4.4-6.7-8.8-13.8-11.1-21.5-3.7-14.6-4.2-30-1.8-44.9,4.3-28.3,20.4-54.1,42.1-72.8-11.5,4.5-21.7,11.7-30.4,20.4C4.6,55.3-5.4,93.6,2.8,127.7c1.1,5,2.9,9.9,5.2,14.4,2.2,4.3,4.7,8.4,7.5,12.3,13.9,19.8,31.3,36.7,47,54.8,8.6,9.9,17.3,20,23.1,31.9,1.3,2.6,2.3,5.4,3.1,8.2.4,1.4.7,2.9.9,4.4.6-4.5,0-9.2-1-13.6-3.4-13.4-10.8-25.4-18.3-36.8"/>
    <path class="st1" d="M124.5,57.9c.9,1.2,1.9,2.3,2.9,3.4,0,0,0,0,0,.1,4.5,5.2,9.2,10.1,14.1,14.8.8.7,1.5,1.3,2.1,2-10-15.8-24.1-37.8-28-51.7.4,7.1,3.1,16.9,6.7,25.4.8,1.9,1.4,3.9,2.1,6"/>
    <path class="st1" d="M187.9,69.6c-11-18.9-26.1-35.9-47.2-43.5-6.8-2.5-13.8-4-20.8-4.5,12.9,4.6,25.9,10.3,36.2,19.4,9,7.8,15.6,17.9,21.2,28.4,4,7.1,6.4,15,7.2,23.1,1.6,15.8-2.4,32.4-12,45.2-4.6,6.1-10.5,11.1-17.6,13.9-14.4,5.7-31.2,1.8-43.1-7.8-2.9-2.3-5.4-4.9-7.6-7.8-2.1-2.7-4-5.7-5.5-8.8-1.8-3.5-3.1-7.2-4.1-11-2-8.1-3.4-19.5,1.7-26.6,1.4-2,3.3-3.6,5.6-4.2,1.2-.3,2.5-.2,3.9.1.5.1,1,.3,1.5.5.8.3,1.5.6,2.3,1-.5-.1-1-.2-1.4-.3-.7-.1-1.5-.2-2.2-.2-8.3-.6-8.8,11-8.8,11,1.8-3.1,4.7-4.8,7.5-3.2,1.3.8,2,3.1,2.2,4.4.5,2.5,1.4,4.8,2.8,7,1.4,2.2,3.1,4.1,4.9,5.9,4.1,4,8.8,7.4,12,12.1,2.1,3.2,3.5,6.8,6,9.7,2.5,2.9,6.8,4.8,10.1,3.1,0,0,.1,0,.2,0-3.6-2.8-6.7-6.1-9-10-.2-.3-.3-.6-.5-.8h0s0,0-.1-.1c-.8-1.3-1.7-2.6-2.5-3.9-1.1-2-2.4-4.5-3.2-7.1-.3-.9-.5-1.8-.7-2.7,0,0,5.6,11.2,12.7,18.1,1.4,1.7,2.9,3.3,4.6,4.6.5-1.5,1.4-2.9,2.6-3.8.6-.5,1.3-1,2-1.4.2-.1.6-.4.8-.6.3-.3.6-.8.4-1.3-.2-.4-.8-.5-1.2-.5-1,0-2,.4-2.8,1.1-.2.2-.4,0-.3-.3.5-1.2,1.7-2.1,3.1-2.3,1.2-.2,2.7.4,2.9,1.7.2,1.2-.5,2.4-1.5,3-2.6,1.4-4.2,2.5-5.2,4.8.2.2.4.3.5.4,0,0,.7.5.7.5.6.2,1.4,0,2-.2,2.3-.6,4.3-2,5.8-3.8,1.2-1.3,2.7-3.1,2.6-4.9,0-1.1-.7-2.1-1.4-2.9-1.1-1.2-2.3-2.3-2.9-3.9-5-15,2.5-25-6.9-36.7-1.3-1.6-3-3.3-5.1-5-4-3.5-7.8-7.2-11.4-11.1-.9-1-1.8-1.9-2.6-2.9-1.3-1.5-2.6-3-3.8-4.5-9-11.2-16.3-23.8-21.2-37.3,0,.7,0,1.5,0,2.2.4,5.8,1.5,11.6,3.4,17.1,1.9,5.7,4.6,10.9,7.2,16.2,1.3,2.7,2.6,5.4,3.7,8.3.6,1.2,1,3.3,1.3,4.7.4,2,.8,4.1,1.1,6.2.4,2.7.6,5.4.6,8.1,0,0-.2-.2-.3-.3-.2-.2-.5-.4-.7-.6,0,0-.1-.1-.2-.2-4.3-3.8-10-7-16-6.4-6.7.8-12.2,6-15,11.9-3.4,7.2-3.5,15.4-2.8,23.2,1.6,15.3,8.9,30.2,20.7,40.2,7.7,6.8,17.1,11.2,26.9,13.1.5.1,1.1.2,1.6.3,14.9,2.4,30.6-1.3,42.5-12.1,22.9-20.9,27.8-57.9,12.9-84.7M134.2,97c.5-.3,1.1-.5,1.6-.6.4.5.8,1.1.9,1.8-.4.3-.8.6-1.3.9-1.3.7-2.8,1.1-4,.8.4-1.2,1.5-2.2,2.8-2.9M124.1,90.2c.4.5.8.9,1.3,1.2,2,1.2,4.8,1.7,6.9,2.7-2.1.7-3.8,2.7-3.6,5.1.1,1.1.7,2.1,1.6,2.8,1.1.8,2.6.8,3.9.6.9-.2,1.8-.3,2.6-.7,0,0,.1,0,.2-.1.1,2.2-.5,4.4,0,7.3l-1-1.4c-1.1-1.2-2.6-2-4.1-2.7-2-1-4.1-1.9-5.4-3.8-1.2-1.8-1.4-4.1-1.6-6.2-.2-1.8-.4-3.6-1.2-5.1l.3.4Z"/>
    <path class="st3" d="M296.9,142.7c0,0,0,.1,0,.2,0,0,0,0,0,.2-.3.6-.5.9-.7,1.1-.3.4-.8.7-1.5.8-.7.1-1.2,0-1.7-.3-.8-.3-1.3-.9-1.7-1.7-.4-.8-.7-1.6-1.1-2.3l-4.7-11.7-.8-1.8c-.1-.3-.3-.7-.4-1s-.3-.7-.5-1c-.3-.8-.9-1.7-1.6-2.7-.7-1-1.6-2.1-2.7-3.2-1.1-1.1-2.4-2.1-4-3-1.6-.9-3.4-1.7-5.5-2.3h-.7c2.4-.3,4.9-.7,7.4-1.3,2.5-.6,4.7-1.6,6.7-3.1,2-1.4,3.7-3.3,5-5.5,1.3-2.3,2-5.2,2-8.7s-.6-6-1.8-8.2c-1.2-2.1-2.8-3.8-4.7-5.1-1.9-1.3-4.1-2.2-6.5-2.8-2.4-.6-4.7-1-7-1.2-2.3-.2-4.5-.3-6.6-.3-2.1,0-3.7,0-5,0h-4.9c-2,0-4.1,0-6.1-.1h-7.3v.3c.7,0,1.3.2,1.9.5.4.3.8.9,1.2,1.7.4.8.6,1.9.6,3.3v57.7c0,1.4-.2,2.5-.6,3.2-.4.8-.8,1.3-1.2,1.7-.6.3-1.2.5-1.9.5v.4c1,0,1.9-.1,2.7-.2.8,0,1.5-.1,2.2-.2.7,0,1.3,0,1.7,0s1,0,1.7,0c.7,0,1.4,0,2.1.2.8,0,1.7.1,2.6.2v-.4c-.7,0-1.3-.2-1.8-.6-.5-.3-.9-.9-1.3-1.6-.4-.7-.6-1.8-.6-3.3v-27h8.7c.4,0,.9,0,1.4,0,.5,0,1.1,0,1.8,0,1.9.1,3.7.5,5.3,1,1.6.6,3.2,1.4,4.6,2.7,1.4,1.2,2.8,2.9,4.1,4.9,1.3,2,2.6,4.6,3.8,7.6l2.2,5.6c.3.9.7,1.9,1.2,3.1.4,1.2,1,2.3,1.7,3.4.7,1.1,1.5,2,2.5,2.9,1,.9,2.1,1.4,3.5,1.6,1.8.3,3.3,0,4.5-.9,1.2-.9,1.8-2.1,2-3.6h-.2c0,.2-.1.2-.1.3M261.6,112.3c-1.7,0-3-.1-4-.1h-7.8v-32.9h13c1.6,0,3.4,0,5.2.3,1.9.2,3.8.6,5.7,1.1,1.9.6,3.7,1.5,5.2,2.7,1.6,1.2,2.8,2.8,3.8,4.7,1,1.9,1.4,4.4,1.4,7.5s-.5,5.8-1.6,7.9c-1,2.1-2.4,3.7-4,5-1.7,1.2-3.5,2.1-5.5,2.7-2,.6-4,.9-6,1.1-2,.2-3.8.2-5.5.2"/>
    <path class="st3" d="M344.1,103.8c-2.3-2.3-5-4.2-8.2-5.5-3.1-1.3-6.5-2-10.1-2s-6.9.7-10,2c-3.1,1.3-5.9,3.2-8.2,5.5-2.3,2.3-4.1,5.1-5.5,8.2-1.3,3.1-2,6.5-2,10s.7,6.9,2,10.1c1.3,3.1,3.2,5.8,5.5,8.2,2.3,2.3,5,4.2,8.2,5.5,3.1,1.3,6.5,2,10,2s7-.7,10.1-2c3.1-1.3,5.9-3.2,8.2-5.5,2.3-2.3,4.1-5.1,5.5-8.2,1.3-3.1,2-6.5,2-10.1s-.7-6.9-2-10c-1.3-3.1-3.2-5.9-5.5-8.2M346,131.8c-.6,2.8-1.7,5.2-3.4,7.3s-3.9,3.7-6.7,4.8c-2.1.9-4.3,1.3-6.7,1.3s-4.4-.4-6.5-1.1c-2.1-.8-4.1-1.8-5.9-3.1-1.8-1.3-3.4-2.8-4.9-4.6-1.5-1.8-2.6-3.6-3.5-5.5-1.1-2.5-1.9-5.2-2.3-8.3-.5-3-.4-6,0-9,.5-2.9,1.5-5.6,3.1-8.1,1.6-2.5,3.9-4.3,6.8-5.5,2-.8,4.1-1.2,6.4-1.2s3.9.3,5.9.9c2,.6,3.9,1.5,5.6,2.7,1.8,1.2,3.4,2.6,5,4.4,1.5,1.7,2.8,3.7,3.8,5.9,1.6,3.5,2.7,6.9,3.2,10.2.6,3.2.5,6.3,0,9"/>
    <path class="st3" d="M442.3,143.9c-.3.3-.6.7-1.1,1-.5.3-1,.5-1.7.5-1,0-1.7-.6-1.9-1.7-.2-1.1-.4-2.4-.5-3.8v-18.1c0-4.1-.4-7.7-1.1-10.7-.7-3-2-5.5-3.7-7.5-1-1.2-2.2-2.2-3.5-3-1.3-.8-2.6-1.4-3.9-1.9-1.3-.5-2.7-.8-4.1-1-1.4-.2-2.7-.3-3.9-.3-2.1,0-4,.4-5.7,1.1-1.7.8-3.2,1.7-4.6,2.8-1.3,1.1-2.4,2.3-3.3,3.6-.9,1.3-1.6,2.5-2.2,3.5-.8-1.9-1.7-3.6-2.9-4.9-1-1.2-2.2-2.2-3.5-3-1.3-.8-2.6-1.5-3.9-2-1.3-.5-2.7-.9-4.1-1.1-1.4-.2-2.7-.2-3.8-.1-1.9.1-3.6.5-5.1,1.1-1.6.6-2.9,1.4-4.1,2.3-1.2.9-2.2,1.8-3.1,2.8-.8,1-1.4,1.9-1.8,2.7v-.5c0,0,0-.1,0-.2,0,0,0,0,0-.2v-.2c0-.8-.1-1.7-.4-2.7-.2-1-.6-1.8-1-2.6-.5-.8-1-1.4-1.8-1.9-.7-.5-1.6-.8-2.6-.8s-1.1,0-1.4.1c-.3,0-.8.2-1.3.4-1.8.8-2.9,2.1-3.2,3.9h.2c.1-.6.4-1,.7-1.5.3-.3.6-.7,1-1,.4-.3,1-.5,1.7-.5s1,.2,1.3.5c.4.6.7,1.3.8,2.2.1.9.2,1.8.2,2.8v36.7c0,1.4-.2,2.5-.6,3.2-.4.8-.8,1.3-1.2,1.7-.6.3-1.2.5-1.9.5v.4c1,0,1.9-.1,2.7-.2.8,0,1.5-.1,2.3-.2.8,0,1.3,0,1.8,0s1,0,1.7,0c.7,0,1.4,0,2.1.2.8,0,1.7.1,2.6.2v-.4c-.7,0-1.3-.2-1.8-.6-.5-.3-.9-.9-1.3-1.6-.4-.7-.6-1.8-.6-3.3v-31.4c1.3-2.8,3.1-5.2,5.5-7,2.5-1.9,5.1-2.8,7.9-2.8s5.6.6,7.6,1.9c1.9,1.3,3.5,3,4.6,5,1.1,2.1,1.9,4.4,2.3,7.1.4,2.7.6,5.3.6,8v19.4c0,1.4-.2,2.5-.6,3.2-.4.8-.8,1.3-1.2,1.7-.6.3-1.2.5-1.9.5v.4c1,0,1.9-.1,2.7-.2.8,0,1.5-.1,2.3-.2.8,0,1.3,0,1.8,0s1,0,1.7,0c.7,0,1.4,0,2.1.2.8,0,1.7.1,2.6.2v-.4c-.7,0-1.3-.2-1.8-.6-.4-.3-.8-.9-1.2-1.6-.4-.7-.6-1.8-.6-3.3v-19.3c0-2.1-.1-4-.3-5.8-.2-1.8-.5-3.4-.8-4.9.8-2,1.7-3.7,2.9-5.2,1.2-1.5,2.4-2.6,3.7-3.6,1.3-.9,2.6-1.6,3.9-2,1.3-.4,2.6-.6,3.7-.6,3.1,0,5.6.6,7.6,1.9,2,1.3,3.5,3,4.6,5,1.1,2.1,1.9,4.4,2.3,7.1.4,2.7.6,5.3.6,8v17.6c0,.9.1,1.8.4,2.7.2.9.6,1.7,1,2.4.4.7,1,1.3,1.8,1.7.7.5,1.6.7,2.6.7s.7,0,.9,0c.3,0,.6,0,.9-.2,1-.3,2-.7,2.7-1.4.8-.7,1.3-1.6,1.4-2.7h-.1c-.2.6-.5,1-.7,1.4"/>
    <path class="st3" d="M480.7,143.9c-2.4,1.1-4.7,1.7-6.9,1.7s-3.9-.4-5.8-1.1c-1.9-.8-3.6-1.8-5.1-3.2-1.6-1.3-3-2.9-4.2-4.8-1.2-1.8-2.2-3.8-3-6-1-2.4-1.6-5.1-1.9-8.1-.3-3-.3-5.9.2-8.8l.2-.8h34.3c-.4-2.3-1.1-4.5-2-6.5-.9-2-2.1-3.7-3.6-5.2-1.5-1.4-3.3-2.6-5.4-3.4-2.1-.8-4.7-1.2-7.6-1.2s-5.8.7-8.3,2c-2.6,1.3-4.9,3.2-6.8,5.5-1.9,2.3-3.5,5-4.6,8.1-1.1,3.1-1.7,6.4-1.7,9.9s.6,6.8,1.7,9.9c1.1,3.1,2.6,5.8,4.6,8.1,1.9,2.3,4.2,4.1,6.8,5.5,2.6,1.3,5.4,2,8.3,2s2.6,0,4-.2c1.4-.1,2.9-.4,4.4-.9,1.5-.5,3.1-1.3,4.6-2.5,1.6-1.1,3.1-2.8,4.7-4.9h-1.6c-1.2,1.9-3,3.5-5.3,4.6M459.3,102.2c2.5-2.6,5.9-3.9,10.1-3.9s5.4.7,7.6,2.2c2.1,1.5,3.7,3,4.6,4.8.9,1.7,1.1,3.3.5,4.8-.6,1.4-2.1,2.2-4.7,2.2h-23.2c.9-4,2.6-7.3,5.1-9.9"/>
  </g>
  <polygon class="st3" points="476.9 83.1 471.2 83.1 468.5 95.3 469.2 95.3 476.9 83.1"/>
  <polygon class="st7" points="308.9 67.3 314.9 75.5 321 67.3 321 87.4 323.7 87.4 323.7 58.9 314.9 70.9 306.1 58.9 306.1 87.4 308.9 87.4 308.9 67.3"/>
  <polygon class="st7" points="343.8 84.7 334.5 84.7 334.5 74.9 343.8 74.9 343.8 72.2 334.5 72.2 334.5 62.5 343.8 62.5 343.8 59.7 331.8 59.7 331.8 87.4 343.8 87.4 343.8 84.7"/>
  <polygon class="st7" points="362.2 84.7 353 84.7 353 59.7 350.2 59.7 350.2 87.4 362.2 87.4 362.2 84.7"/>
  <path class="st7" d="M369.4,83.4h13l1.5,4h3l-11-28.5-11,28.5h3l1.5-4ZM375.9,66.3l5.6,14.9h-11.2l5.6-14.9Z"/>
  <polygon class="st7" points="394 68.7 405.7 88.2 405.7 59.7 403 59.7 403 78.5 391.3 58.9 391.3 87.4 394 87.4 394 68.7"/>
  <rect class="st7" x="413.8" y="59.7" width="2.7" height="27.7"/>
  <polygon class="st7" points="436.6 84.7 427.3 84.7 427.3 74.9 436.6 74.9 436.6 72.2 427.3 72.2 427.3 62.5 436.6 62.5 436.6 59.7 424.6 59.7 424.6 87.4 436.6 87.4 436.6 84.7"/>
</svg>