<?xml version="1.0" encoding="UTF-8"?>
<svg id="Ebene_1" data-name="Ebene 1" xmlns="http://www.w3.org/2000/svg" viewBox="0 0 195.79 97.04">
  <defs>
    <style>
      .cls-1 {
        fill: #eae3d9;
      }

      .cls-2 {
        fill: #a794c6;
      }

      .cls-3 {
        fill: #d2c5e2;
      }

      .cls-4 {
        fill: #aea18a;
      }

      .cls-5 {
        fill: #d5c9b6;
      }

      .cls-6 {
        fill: #927cb8;
      }

      .cls-7 {
        fill: #bcacd5;
      }

      .cls-8 {
        fill: #e0d6c6;
      }
    </style>
  </defs>
  <g>
    <path class="cls-4" d="M94.24,81.95h-2.96v-6.15h.66v5.55h2.3v.61Z"/>
    <path class="cls-4" d="M97.61,81.65c-.14.13-.32.23-.54.3-.22.07-.45.11-.69.11-.28,0-.51-.05-.72-.16s-.37-.26-.5-.47c-.13-.2-.23-.44-.29-.73-.06-.28-.09-.6-.09-.95,0-.75.14-1.32.41-1.71.28-.39.67-.59,1.17-.59.16,0,.33.02.49.06s.31.12.43.25.23.3.31.52c.08.22.12.51.12.87,0,.1,0,.21-.01.32,0,.11-.02.23-.03.36h-2.23c0,.25.02.48.06.69s.11.38.19.52.2.25.34.33c.14.08.31.12.51.12.16,0,.31-.03.47-.09.16-.06.27-.13.36-.21l.23.47ZM97.12,79.3c.01-.44-.05-.76-.18-.97-.13-.21-.32-.31-.55-.31-.27,0-.48.1-.64.31-.16.21-.25.53-.28.97h1.66Z"/>
    <path class="cls-4" d="M98.64,75.8h.63v2.09h.03c.24-.29.56-.44.96-.44.45,0,.79.18,1.02.54.23.36.34.92.34,1.7s-.15,1.38-.45,1.77c-.3.39-.73.58-1.28.58-.27,0-.52-.03-.74-.09-.22-.06-.39-.13-.5-.22v-5.92ZM99.27,81.31c.08.05.18.08.3.11.12.03.25.04.38.04.3,0,.55-.14.73-.43s.27-.74.27-1.34c0-.25-.02-.48-.05-.68-.03-.2-.08-.38-.15-.52-.07-.15-.16-.26-.26-.34-.11-.08-.24-.12-.39-.12-.21,0-.39.06-.52.19-.14.13-.24.3-.3.51v2.58Z"/>
    <path class="cls-4" d="M105.19,81.65c-.14.13-.32.23-.54.3-.22.07-.45.11-.69.11-.28,0-.51-.05-.72-.16s-.37-.26-.5-.47c-.13-.2-.23-.44-.29-.73-.06-.28-.09-.6-.09-.95,0-.75.14-1.32.41-1.71.28-.39.67-.59,1.17-.59.16,0,.33.02.49.06s.31.12.43.25.23.3.31.52c.08.22.12.51.12.87,0,.1,0,.21-.01.32,0,.11-.02.23-.03.36h-2.23c0,.25.02.48.06.69s.11.38.19.52.2.25.34.33c.14.08.31.12.51.12.16,0,.31-.03.47-.09.16-.06.27-.13.36-.21l.23.47ZM104.7,79.3c.01-.44-.05-.76-.18-.97-.13-.21-.32-.31-.55-.31-.27,0-.48.1-.64.31-.16.21-.25.53-.28.97h1.66Z"/>
    <path class="cls-4" d="M108.47,81.95v-2.68c0-.44-.05-.76-.15-.95-.1-.2-.29-.29-.55-.29-.23,0-.43.07-.58.21-.15.14-.26.31-.33.52v3.2h-.63v-4.4h.46l.11.47h.03c.11-.16.26-.29.45-.4.19-.11.42-.17.68-.17.19,0,.35.03.5.08.14.05.26.14.36.27.1.13.17.29.22.51.05.21.07.48.07.8v2.85h-.63Z"/>
    <path class="cls-4" d="M110.09,81.23c.12.07.26.13.42.18.16.05.33.08.5.08.19,0,.36-.05.49-.15s.2-.26.2-.47c0-.18-.04-.33-.12-.45-.08-.12-.19-.22-.31-.32-.13-.09-.26-.18-.41-.26-.15-.08-.28-.17-.41-.28-.13-.11-.23-.24-.31-.39-.08-.15-.12-.34-.12-.58,0-.37.1-.66.3-.85s.49-.29.86-.29c.24,0,.45.02.62.07.18.04.33.1.46.18l-.17.53c-.11-.06-.24-.11-.39-.14s-.3-.06-.45-.06c-.21,0-.36.04-.46.13-.1.09-.14.23-.14.41,0,.15.04.27.12.37.08.1.19.2.31.28.13.09.26.17.41.26.15.09.28.19.41.31.13.12.23.26.31.43s.12.38.12.63c0,.16-.03.32-.08.47-.05.15-.13.27-.24.38-.11.11-.24.2-.4.26-.16.06-.35.1-.57.1-.26,0-.48-.03-.67-.08-.19-.05-.35-.12-.47-.2l.19-.55Z"/>
    <path class="cls-4" d="M113.16,77.56h.45l.1.48h.04c.22-.39.56-.58,1.02-.58s.81.17,1.04.52c.23.35.35.91.35,1.7,0,.37-.04.7-.11,1-.08.3-.18.55-.33.76-.14.21-.31.37-.51.48-.2.11-.43.16-.67.16-.17,0-.3-.01-.4-.03-.1-.02-.21-.06-.33-.13v1.81h-.63v-6.15ZM113.8,81.26c.08.07.17.13.28.17s.24.06.41.06c.31,0,.56-.16.74-.48.18-.32.27-.77.27-1.35,0-.25-.02-.47-.05-.67-.03-.2-.08-.37-.15-.51-.07-.14-.16-.25-.27-.33-.11-.08-.24-.12-.4-.12-.43,0-.7.26-.83.78v2.45Z"/>
    <path class="cls-4" d="M117.06,77.56h.45l.11.47h.03c.08-.17.19-.3.32-.4.13-.1.29-.14.48-.14.13,0,.29.03.46.08l-.12.64c-.15-.05-.29-.08-.4-.08-.19,0-.34.05-.46.16-.12.11-.19.25-.23.44v3.23h-.63v-4.4Z"/>
    <path class="cls-4" d="M119.59,77.82c.17-.1.38-.19.62-.25.24-.06.5-.09.77-.09.25,0,.44.04.59.11.15.07.27.17.35.3s.14.27.17.43c.03.16.04.33.04.51,0,.35,0,.69-.02,1.03-.02.33-.02.65-.02.95,0,.22,0,.43.02.62.01.19.04.37.08.54h-.5l-.15-.52h-.03c-.09.15-.22.28-.38.39-.17.11-.4.17-.68.17-.31,0-.57-.11-.77-.33-.2-.22-.3-.52-.3-.91,0-.25.04-.46.13-.63.08-.17.2-.31.36-.41.15-.1.34-.18.55-.22s.45-.07.71-.07h.17c.06,0,.12,0,.18,0,.02-.18.03-.34.03-.48,0-.33-.05-.57-.15-.7-.1-.13-.28-.2-.54-.2-.16,0-.34.03-.53.08s-.35.11-.48.19l-.21-.5ZM121.48,79.95c-.06,0-.12-.01-.17-.01-.06,0-.12,0-.17,0-.14,0-.28.01-.41.04-.13.02-.25.06-.36.12-.1.06-.19.14-.25.24-.06.1-.09.23-.09.38,0,.23.06.42.17.55s.26.19.44.19c.24,0,.43-.06.56-.18.13-.12.23-.25.28-.39v-.93Z"/>
    <path class="cls-4" d="M124.16,79.97h-.33v1.98h-.63v-6.15h.63v3.74l.29-.12,1.03-1.86h.73l-1.04,1.78-.31.28.36.34,1.13,2h-.76l-1.11-1.98Z"/>
    <path class="cls-4" d="M126.45,77.56h.54v-.87l.63-.2v1.07h.95v.57h-.95v2.62c0,.26.03.44.09.56.06.11.16.17.3.17.12,0,.22-.01.3-.04.08-.03.18-.06.28-.1l.12.5c-.13.06-.27.12-.43.15-.16.04-.32.06-.49.06-.29,0-.5-.1-.63-.29-.13-.19-.19-.5-.19-.93v-2.71h-.54v-.57Z"/>
    <path class="cls-4" d="M129.38,76.22c0-.14.04-.25.12-.34s.18-.13.31-.13.24.04.32.13.13.2.13.35-.04.25-.13.33-.19.12-.32.12-.23-.04-.31-.12-.12-.19-.12-.33ZM129.5,77.56h.63v4.4h-.63v-4.4Z"/>
    <path class="cls-4" d="M131.22,81.23c.12.07.26.13.42.18s.33.08.5.08c.19,0,.36-.05.49-.15.13-.1.2-.26.2-.47,0-.18-.04-.33-.12-.45-.08-.12-.19-.22-.31-.32-.13-.09-.26-.18-.41-.26-.15-.08-.28-.17-.41-.28-.13-.11-.23-.24-.31-.39-.08-.15-.12-.34-.12-.58,0-.37.1-.66.3-.85s.49-.29.86-.29c.24,0,.45.02.62.07.18.04.33.1.46.18l-.17.53c-.11-.06-.24-.11-.39-.14-.15-.04-.3-.06-.45-.06-.21,0-.37.04-.46.13-.1.09-.14.23-.14.41,0,.15.04.27.12.37.08.1.19.2.31.28.13.09.26.17.41.26s.28.19.41.31c.13.12.23.26.31.43s.12.38.12.63c0,.16-.03.32-.08.47-.05.15-.13.27-.24.38-.11.11-.24.2-.4.26-.16.06-.35.1-.57.1-.26,0-.48-.03-.67-.08-.19-.05-.35-.12-.48-.2l.19-.55Z"/>
    <path class="cls-4" d="M136.79,81.73c-.15.11-.31.19-.5.25-.19.05-.38.08-.59.08-.28,0-.52-.05-.71-.16-.19-.11-.35-.26-.47-.47s-.21-.45-.26-.73-.08-.6-.08-.95c0-.75.13-1.32.4-1.71.27-.39.65-.59,1.15-.59.23,0,.42.02.59.06s.3.09.42.16l-.18.55c-.23-.13-.49-.2-.77-.2-.32,0-.56.14-.72.42s-.24.72-.24,1.31c0,.24.02.47.05.68.04.21.09.39.18.55.08.15.19.28.32.37s.29.14.48.14c.15,0,.29-.03.43-.08.13-.05.24-.11.32-.19l.19.51Z"/>
    <path class="cls-4" d="M139.83,81.95v-2.67c0-.41-.05-.72-.14-.94-.1-.21-.29-.32-.58-.32-.21,0-.39.07-.56.22-.17.15-.28.33-.34.55v3.16h-.63v-6.15h.63v2.17h.03c.12-.15.26-.28.43-.37.17-.1.39-.14.65-.14.19,0,.36.03.51.08.14.05.26.14.36.27s.16.3.21.51c.05.21.07.48.07.8v2.84h-.63Z"/>
    <path class="cls-4" d="M144.16,81.65c-.14.13-.32.23-.54.3-.22.07-.44.11-.68.11-.28,0-.52-.05-.72-.16s-.37-.26-.5-.47c-.13-.2-.23-.44-.29-.73-.06-.28-.09-.6-.09-.95,0-.75.14-1.32.41-1.71.27-.39.66-.59,1.17-.59.16,0,.33.02.49.06s.31.12.43.25.23.3.31.52c.08.22.12.51.12.87,0,.1,0,.21-.01.32,0,.11-.02.23-.03.36h-2.23c0,.25.02.48.06.69s.11.38.19.52.2.25.34.33.31.12.51.12c.16,0,.31-.03.47-.09.15-.06.27-.13.36-.21l.23.47ZM143.67,79.3c.01-.44-.05-.76-.18-.97s-.32-.31-.55-.31c-.27,0-.48.1-.64.31s-.25.53-.28.97h1.66Z"/>
    <path class="cls-4" d="M150.12,77.2c0,.15-.02.31-.05.46-.04.15-.09.3-.17.43-.08.13-.17.25-.29.36-.11.1-.25.18-.42.24v.04c.14.03.27.08.4.14.13.07.24.16.34.28.1.12.18.27.24.44.06.17.09.38.09.62,0,.32-.05.59-.15.82-.1.23-.24.42-.41.57-.17.15-.37.25-.6.33s-.46.11-.72.11h-.29c-.11,0-.23,0-.35-.01-.12,0-.25-.02-.37-.04s-.23-.04-.33-.07v-6.06c.18-.04.38-.06.62-.09s.49-.04.77-.04c.2,0,.4.02.6.06s.38.11.54.22c.16.1.29.25.38.44.1.19.15.44.15.75ZM148.09,78.53c.08,0,.18,0,.28,0,.1,0,.19-.02.26-.03.22-.09.4-.23.56-.43s.23-.44.23-.72c0-.19-.03-.36-.08-.49-.05-.13-.12-.24-.22-.31-.09-.08-.2-.13-.32-.16s-.25-.05-.39-.05c-.15,0-.29,0-.41.01-.12,0-.22.02-.28.03v2.15h.36ZM148.45,81.42c.16,0,.31-.02.44-.08.13-.05.25-.12.36-.22.1-.1.18-.22.24-.36.06-.14.09-.31.09-.51,0-.24-.04-.43-.11-.58-.07-.15-.17-.27-.29-.35s-.25-.14-.4-.17c-.15-.03-.3-.04-.46-.04h-.59v2.25s.08.02.14.03c.06,0,.12.01.18.02.07,0,.14.01.21.01.07,0,.13,0,.19,0Z"/>
    <path class="cls-4" d="M153.9,81.65c-.14.13-.32.23-.54.3-.22.07-.45.11-.69.11-.28,0-.51-.05-.72-.16s-.37-.26-.5-.47-.23-.44-.29-.73c-.06-.28-.09-.6-.09-.95,0-.75.14-1.32.41-1.71.28-.39.67-.59,1.17-.59.16,0,.33.02.49.06s.31.12.43.25.23.3.31.52c.08.22.12.51.12.87,0,.1,0,.21-.01.32,0,.11-.02.23-.03.36h-2.23c0,.25.02.48.06.69s.11.38.19.52.2.25.34.33c.14.08.31.12.51.12.16,0,.31-.03.47-.09.16-.06.27-.13.36-.21l.23.47ZM153.41,79.3c.01-.44-.05-.76-.19-.97-.13-.21-.32-.31-.55-.31-.27,0-.48.1-.64.31-.16.21-.25.53-.28.97h1.66Z"/>
    <path class="cls-4" d="M157.76,82.15c0,.57-.13.99-.38,1.26-.25.27-.62.4-1.1.4-.29,0-.53-.02-.72-.08-.19-.05-.34-.11-.46-.17l.19-.55c.12.05.25.1.39.15.14.05.31.07.52.07.36,0,.6-.1.73-.3.13-.2.2-.53.2-1v-.33h-.03c-.09.13-.21.24-.36.32-.15.08-.33.11-.56.11-.48,0-.82-.18-1.05-.55s-.33-.94-.33-1.73.14-1.33.43-1.71c.29-.39.72-.58,1.29-.58.28,0,.51.03.71.08s.37.11.53.19v4.41ZM157.13,78.19c-.18-.09-.4-.14-.68-.14-.3,0-.54.14-.72.41-.18.27-.27.71-.27,1.3,0,.25.01.47.04.68.03.21.08.39.15.55s.16.28.27.36.24.13.4.13c.22,0,.4-.06.53-.18.13-.12.22-.29.28-.53v-2.58Z"/>
    <path class="cls-4" d="M159.49,80.91c0,.21.03.35.08.44.06.09.13.13.23.13.12,0,.27-.03.43-.1l.06.51c-.08.05-.18.08-.32.11-.14.03-.26.04-.37.04-.22,0-.4-.07-.54-.21s-.21-.38-.21-.73v-5.32h.63v5.11Z"/>
    <path class="cls-4" d="M163.58,81.65c-.14.13-.32.23-.54.3-.22.07-.45.11-.68.11-.28,0-.52-.05-.72-.16s-.37-.26-.5-.47c-.13-.2-.23-.44-.29-.73s-.09-.6-.09-.95c0-.75.14-1.32.41-1.71s.66-.59,1.17-.59c.16,0,.33.02.49.06.16.04.31.12.43.25.13.12.23.3.31.52.08.22.12.51.12.87,0,.1,0,.21-.01.32,0,.11-.02.23-.03.36h-2.23c0,.25.02.48.06.69.04.21.1.38.19.52s.2.25.34.33c.14.08.31.12.51.12.16,0,.31-.03.47-.09.15-.06.27-.13.35-.21l.23.47ZM163.09,79.3c.01-.44-.05-.76-.19-.97-.13-.21-.32-.31-.55-.31-.27,0-.48.1-.64.31-.16.21-.25.53-.28.97h1.66Z"/>
    <path class="cls-4" d="M164.54,76.22c0-.14.04-.25.12-.34.08-.09.18-.13.31-.13s.24.04.32.13.13.2.13.35-.04.25-.13.33-.19.12-.32.12-.23-.04-.31-.12c-.08-.08-.12-.19-.12-.33ZM164.65,77.56h.63v4.4h-.63v-4.4Z"/>
    <path class="cls-4" d="M166.08,77.56h.54v-.87l.63-.2v1.07h.95v.57h-.95v2.62c0,.26.03.44.09.56.06.11.16.17.3.17.12,0,.22-.01.3-.04.08-.03.18-.06.28-.1l.12.5c-.13.06-.27.12-.43.15-.16.04-.32.06-.49.06-.29,0-.5-.1-.63-.29-.13-.19-.19-.5-.19-.93v-2.71h-.54v-.57Z"/>
    <path class="cls-4" d="M171.62,81.65c-.14.13-.32.23-.54.3-.22.07-.44.11-.68.11-.28,0-.52-.05-.72-.16s-.37-.26-.5-.47c-.13-.2-.23-.44-.29-.73-.06-.28-.09-.6-.09-.95,0-.75.14-1.32.41-1.71.27-.39.66-.59,1.17-.59.16,0,.33.02.49.06s.31.12.43.25.23.3.31.52c.08.22.12.51.12.87,0,.1,0,.21-.01.32,0,.11-.02.23-.03.36h-2.23c0,.25.02.48.06.69s.11.38.19.52.2.25.34.33.31.12.51.12c.16,0,.31-.03.47-.09.15-.06.27-.13.36-.21l.23.47ZM171.13,79.3c.01-.44-.05-.76-.18-.97s-.32-.31-.55-.31c-.27,0-.48.1-.64.31s-.25.53-.28.97h1.66Z"/>
    <path class="cls-4" d="M172.65,77.56h.45l.11.47h.03c.08-.17.19-.3.32-.4.13-.1.29-.14.48-.14.13,0,.29.03.46.08l-.12.64c-.15-.05-.29-.08-.4-.08-.19,0-.34.05-.46.16-.12.11-.19.25-.23.44v3.23h-.63v-4.4Z"/>
    <path class="cls-4" d="M175.15,76.22c0-.14.04-.25.12-.34s.18-.13.31-.13.24.04.32.13c.09.08.13.2.13.35s-.04.25-.13.33c-.08.08-.19.12-.32.12s-.23-.04-.31-.12-.12-.19-.12-.33ZM175.26,77.56h.63v4.4h-.63v-4.4Z"/>
    <path class="cls-4" d="M179.31,81.95v-2.68c0-.44-.05-.76-.15-.95s-.29-.29-.55-.29c-.23,0-.43.07-.58.21-.15.14-.26.31-.33.52v3.2h-.63v-4.4h.46l.11.47h.03c.11-.16.26-.29.45-.4.19-.11.42-.17.68-.17.19,0,.35.03.5.08.14.05.26.14.36.27.1.13.17.29.22.51.05.21.07.48.07.8v2.85h-.63Z"/>
  </g>
  <path class="cls-4" d="M90.85,88.79h.54v-.25c0-.55.08-.95.24-1.2.16-.25.43-.37.81-.37.15,0,.29,0,.41.03.12.02.25.06.38.11l-.16.55c-.11-.05-.2-.08-.29-.09-.09-.01-.18-.02-.26-.02-.12,0-.21.02-.27.07-.06.05-.11.12-.15.22-.03.1-.05.23-.06.38,0,.16-.01.34-.01.57h.91v.57h-.91v3.82h-.63v-3.82h-.54v-.57ZM94.25,88.79v2.69c0,.45.05.76.14.95.09.19.26.29.5.29.12,0,.23-.02.33-.07.1-.05.18-.12.26-.2.08-.08.14-.18.2-.28.06-.11.11-.21.14-.33v-3.05h.63v3.15c0,.21,0,.43.02.65.01.23.04.42.07.59h-.45l-.16-.62h-.03c-.1.19-.24.36-.43.51-.19.14-.42.22-.7.22-.19,0-.35-.02-.49-.07-.14-.05-.26-.13-.36-.25-.1-.12-.17-.29-.22-.51-.05-.21-.07-.49-.07-.82v-2.85h.63ZM93.96,87.45c0-.13.03-.24.1-.32.07-.08.16-.11.28-.11s.21.04.28.11c.07.08.1.18.1.32,0,.12-.03.22-.1.3-.07.08-.16.11-.28.11s-.21-.04-.28-.11c-.07-.08-.1-.18-.1-.3ZM95.36,87.45c0-.13.03-.24.1-.32.07-.08.16-.11.28-.11s.21.04.28.11c.07.08.1.18.1.32,0,.12-.03.22-.1.3-.07.08-.16.11-.28.11s-.21-.04-.28-.11c-.07-.08-.1-.18-.1-.3ZM97.54,88.79h.45l.11.47h.03c.08-.17.19-.3.32-.4s.29-.15.48-.15c.13,0,.29.03.46.08l-.12.64c-.15-.05-.29-.08-.4-.08-.19,0-.34.05-.46.16-.12.11-.19.25-.23.44v3.24h-.63v-4.4ZM101.93,88.79h.63v4.63c0,.6-.1,1.04-.29,1.31-.19.27-.51.37-.94.3v-.57c.13,0,.23-.03.31-.08s.14-.13.18-.24c.04-.11.07-.24.08-.4.01-.16.02-.35.02-.57v-4.38ZM101.81,87.45c0-.14.04-.25.12-.34.08-.09.18-.13.31-.13s.24.04.32.13c.08.09.13.2.13.35s-.04.25-.13.33c-.09.08-.19.12-.32.12s-.23-.04-.31-.12c-.08-.08-.12-.19-.12-.33ZM104.29,88.79v2.69c0,.45.05.76.14.95.09.19.26.29.5.29.12,0,.23-.02.33-.07.1-.05.18-.12.26-.2.08-.08.14-.18.2-.28.06-.11.11-.21.14-.33v-3.05h.63v3.15c0,.21,0,.43.02.65.01.23.04.42.07.59h-.45l-.16-.62h-.03c-.1.19-.24.36-.43.51-.19.14-.42.22-.7.22-.19,0-.35-.02-.49-.07-.14-.05-.26-.13-.36-.25-.1-.12-.17-.29-.22-.51-.05-.21-.07-.49-.07-.82v-2.85h.63ZM109.83,93.19v-2.68c0-.44-.05-.76-.15-.95-.1-.2-.29-.29-.55-.29-.23,0-.43.07-.58.21-.15.14-.26.31-.33.52v3.2h-.63v-4.4h.46l.11.47h.03c.11-.16.26-.29.45-.4.19-.11.42-.17.68-.17.19,0,.35.03.5.08.14.05.26.14.36.27.1.13.17.29.22.51.05.21.07.48.07.8v2.85h-.63ZM114.31,93.39c0,.57-.13.99-.38,1.26-.25.27-.62.4-1.1.4-.29,0-.53-.03-.72-.07-.19-.05-.34-.11-.46-.17l.18-.55c.12.05.25.1.39.15.14.05.31.07.52.07.36,0,.6-.1.73-.3.13-.2.2-.53.2-1v-.33h-.03c-.09.13-.21.24-.36.32-.15.08-.33.11-.56.11-.47,0-.82-.18-1.05-.55-.22-.37-.33-.94-.33-1.73s.15-1.33.44-1.71c.29-.39.72-.58,1.29-.58.28,0,.51.03.71.08.2.05.37.11.53.18v4.41ZM113.68,89.42c-.18-.09-.4-.14-.68-.14-.3,0-.54.14-.72.41-.18.27-.27.71-.27,1.31,0,.25.01.47.04.68.03.21.08.39.15.55.07.16.16.28.27.36.11.09.24.13.4.13.22,0,.4-.06.53-.18.13-.12.22-.29.28-.53v-2.58ZM118.05,92.89c-.14.13-.32.23-.54.3-.22.07-.45.11-.69.11-.28,0-.51-.05-.72-.16-.2-.11-.37-.26-.5-.47-.13-.2-.23-.44-.29-.73-.06-.28-.09-.6-.09-.95,0-.75.14-1.32.41-1.71.28-.39.67-.59,1.17-.59.16,0,.33.02.49.06.16.04.31.12.44.25.13.12.23.3.31.52.08.22.12.51.12.87,0,.1,0,.21-.01.32,0,.11-.02.23-.03.36h-2.23c0,.25.02.48.06.69.04.21.11.38.19.52.09.14.2.25.34.33.14.08.31.12.51.12.16,0,.31-.03.47-.09.16-.06.27-.13.36-.21l.23.47ZM117.56,90.53c.01-.44-.05-.76-.18-.97-.13-.21-.32-.31-.55-.31-.27,0-.48.1-.64.31-.16.21-.25.53-.28.97h1.66ZM120.96,87.03h2.73v.61h-2.07v2.17h1.93v.61h-1.93v2.77h-.66v-6.15ZM124.52,88.79h.45l.11.47h.03c.08-.17.19-.3.32-.4s.29-.15.48-.15c.13,0,.29.03.46.08l-.12.64c-.15-.05-.29-.08-.4-.08-.19,0-.34.05-.46.16-.12.11-.19.25-.23.44v3.24h-.63v-4.4ZM127.05,89.05c.17-.11.38-.19.62-.25.24-.06.5-.09.77-.09.25,0,.44.04.59.11.15.07.27.17.35.3.08.13.14.27.17.43.03.16.04.33.04.51,0,.35,0,.69-.02,1.03s-.02.65-.02.95c0,.22,0,.43.02.62.02.19.04.37.08.54h-.5l-.15-.52h-.03c-.09.15-.22.28-.38.4s-.4.17-.68.17c-.31,0-.57-.11-.77-.33-.2-.22-.3-.52-.3-.91,0-.25.04-.46.13-.63.08-.17.2-.31.36-.41.15-.11.34-.18.55-.22.21-.04.45-.07.71-.07h.17c.06,0,.12,0,.18,0,.02-.18.03-.34.03-.48,0-.33-.05-.57-.15-.7-.1-.13-.28-.2-.54-.2-.16,0-.34.02-.53.07-.19.05-.35.11-.48.19l-.21-.5ZM128.94,91.18c-.06,0-.12-.01-.17-.01-.06,0-.12,0-.17,0-.14,0-.28.01-.41.04-.13.02-.25.06-.36.12-.1.06-.19.14-.25.24-.06.1-.09.23-.09.38,0,.23.06.42.17.55.11.13.26.19.44.19.24,0,.43-.06.56-.18.13-.12.23-.25.28-.39v-.93ZM131.24,88.79v2.69c0,.45.05.76.14.95.09.19.26.29.5.29.12,0,.23-.02.33-.07.1-.05.18-.12.26-.2.08-.08.14-.18.2-.28.06-.11.11-.21.14-.33v-3.05h.63v3.15c0,.21,0,.43.02.65.01.23.04.42.07.59h-.45l-.16-.62h-.03c-.1.19-.24.36-.43.51-.19.14-.42.22-.7.22-.19,0-.35-.02-.49-.07-.14-.05-.26-.13-.36-.25-.1-.12-.17-.29-.22-.51-.05-.21-.07-.49-.07-.82v-2.85h.63ZM137.17,92.89c-.14.13-.32.23-.54.3-.22.07-.45.11-.69.11-.28,0-.51-.05-.72-.16-.2-.11-.37-.26-.5-.47-.13-.2-.23-.44-.29-.73-.06-.28-.09-.6-.09-.95,0-.75.14-1.32.41-1.71.28-.39.67-.59,1.17-.59.16,0,.33.02.49.06.16.04.31.12.44.25.13.12.23.3.31.52.08.22.12.51.12.87,0,.1,0,.21-.01.32,0,.11-.02.23-.03.36h-2.23c0,.25.02.48.06.69.04.21.11.38.19.52.09.14.2.25.34.33.14.08.31.12.51.12.16,0,.31-.03.47-.09.16-.06.27-.13.36-.21l.23.47ZM136.67,90.53c.01-.44-.05-.76-.18-.97-.13-.21-.32-.31-.55-.31-.27,0-.48.1-.64.31-.16.21-.25.53-.28.97h1.66ZM140.45,93.19v-2.68c0-.44-.05-.76-.15-.95-.1-.2-.29-.29-.55-.29-.23,0-.43.07-.58.21-.15.14-.26.31-.33.52v3.2h-.63v-4.4h.46l.11.47h.03c.11-.16.26-.29.45-.4.19-.11.42-.17.68-.17.19,0,.35.03.5.08.14.05.26.14.36.27.1.13.17.29.22.51.05.21.07.48.07.8v2.85h-.63ZM143.91,87.45c0-.14.04-.25.12-.34.08-.09.18-.13.31-.13s.24.04.32.13c.08.09.13.2.13.35s-.04.25-.13.33c-.09.08-.19.12-.32.12s-.23-.04-.31-.12c-.08-.08-.12-.19-.12-.33ZM144.02,88.79h.63v4.4h-.63v-4.4ZM148.06,93.19v-2.68c0-.44-.05-.76-.15-.95-.1-.2-.29-.29-.55-.29-.23,0-.43.07-.58.21-.15.14-.26.31-.33.52v3.2h-.63v-4.4h.46l.11.47h.03c.11-.16.26-.29.45-.4.19-.11.42-.17.68-.17.19,0,.35.03.5.08.14.05.26.14.36.27.1.13.17.29.22.51.05.21.07.48.07.8v2.85h-.63ZM151.53,92.37c.11.08.27.15.47.22.2.07.43.1.69.1.33,0,.59-.08.8-.24.21-.16.31-.41.31-.76,0-.23-.06-.43-.18-.6-.12-.17-.26-.33-.44-.47-.18-.14-.36-.28-.57-.42-.2-.14-.39-.29-.57-.46-.18-.17-.32-.36-.44-.58-.12-.22-.18-.48-.18-.78,0-.49.15-.86.44-1.09.3-.24.68-.36,1.16-.36.29,0,.55.03.78.08.23.05.41.12.55.2l-.21.58c-.11-.06-.26-.12-.45-.18-.2-.05-.42-.08-.68-.08-.32,0-.55.08-.7.23-.15.16-.23.35-.23.58,0,.21.06.39.18.55.12.16.26.31.44.45.18.14.36.28.57.43.2.14.39.3.57.48.18.18.32.38.44.6.12.22.18.49.18.79,0,.52-.15.92-.46,1.21-.3.29-.74.44-1.29.44-.35,0-.64-.03-.87-.1-.23-.06-.41-.14-.54-.22l.23-.61ZM158.06,92.89c-.14.13-.32.23-.54.3-.22.07-.45.11-.69.11-.28,0-.51-.05-.72-.16-.2-.11-.37-.26-.5-.47-.13-.2-.23-.44-.29-.73-.06-.28-.09-.6-.09-.95,0-.75.14-1.32.41-1.71.28-.39.67-.59,1.17-.59.16,0,.33.02.49.06.16.04.31.12.44.25.13.12.23.3.31.52.08.22.12.51.12.87,0,.1,0,.21-.01.32,0,.11-.02.23-.03.36h-2.23c0,.25.02.48.06.69.04.21.11.38.19.52.09.14.2.25.34.33.14.08.31.12.51.12.16,0,.31-.03.47-.09.16-.06.27-.13.36-.21l.23.47ZM157.57,90.53c.01-.44-.05-.76-.18-.97-.13-.21-.32-.31-.55-.31-.27,0-.48.1-.64.31-.16.21-.25.53-.28.97h1.66ZM159.73,92.14c0,.21.03.35.08.44.06.09.13.13.23.13.12,0,.27-.03.43-.1l.06.51c-.08.05-.18.08-.32.11-.14.03-.26.04-.37.04-.22,0-.4-.07-.54-.21-.14-.14-.21-.38-.21-.73v-5.32h.63v5.11ZM161.25,87.03h.63v2.09h.03c.24-.29.56-.44.96-.44.45,0,.79.18,1.02.54.23.36.34.92.34,1.7s-.15,1.38-.45,1.77c-.3.39-.73.58-1.28.58-.27,0-.52-.03-.74-.09-.22-.06-.39-.13-.5-.22v-5.93ZM161.89,92.54c.08.05.18.08.3.11.12.03.25.04.38.04.3,0,.55-.15.73-.44.18-.29.27-.74.27-1.34,0-.25-.02-.48-.05-.68-.03-.2-.08-.38-.15-.52-.07-.15-.16-.26-.26-.34-.11-.08-.24-.12-.39-.12-.21,0-.39.06-.52.19-.14.13-.24.3-.3.51v2.58ZM165.07,92.47c.12.07.26.13.42.18.16.05.33.07.5.07.19,0,.36-.05.49-.15.13-.1.2-.25.2-.47,0-.18-.04-.33-.12-.45-.08-.12-.19-.22-.31-.32-.13-.09-.26-.18-.41-.26-.15-.08-.28-.17-.41-.28-.13-.11-.23-.24-.31-.39-.08-.15-.12-.34-.12-.58,0-.37.1-.66.3-.85.2-.19.49-.28.86-.28.24,0,.45.02.62.07.18.04.33.1.46.18l-.17.53c-.11-.06-.24-.11-.39-.15-.15-.04-.3-.06-.45-.06-.21,0-.36.04-.46.13s-.15.23-.15.41c0,.15.04.27.12.37.08.1.19.2.31.28.13.09.26.17.41.26.15.09.28.19.41.31.13.12.23.26.31.43.08.17.12.38.12.63,0,.16-.03.32-.08.47-.05.15-.13.27-.24.38s-.24.19-.4.26c-.16.06-.35.1-.57.1-.26,0-.48-.02-.67-.07-.19-.05-.35-.12-.47-.2l.19-.55ZM167.88,88.79h.54v-.87l.63-.2v1.07h.95v.57h-.95v2.62c0,.26.03.44.09.56s.16.17.3.17c.12,0,.22-.01.3-.04.08-.03.18-.06.28-.1l.12.5c-.13.06-.27.12-.43.15-.16.04-.32.06-.49.06-.29,0-.5-.1-.63-.29-.13-.19-.19-.5-.19-.93v-2.71h-.54v-.57ZM173.8,88.79v4.4h-.63v-3.82h-1.36v3.82h-.63v-3.82h-.54v-.57h.54v-.25c0-.55.11-.95.33-1.2.22-.25.55-.37.98-.37.29,0,.54.03.75.08.21.06.39.12.52.19l-.2.53c-.14-.08-.3-.14-.47-.18-.17-.04-.35-.05-.54-.05-.16,0-.29.03-.39.08-.1.06-.17.14-.22.25-.05.11-.09.24-.1.4-.01.16-.02.33-.02.52h2ZM177.17,93.19v-2.68c0-.44-.05-.76-.15-.95-.1-.2-.29-.29-.55-.29-.23,0-.43.07-.58.21-.15.14-.26.31-.33.52v3.2h-.63v-4.4h.46l.11.47h.03c.11-.16.26-.29.45-.4.19-.11.42-.17.68-.17.19,0,.35.03.5.08.14.05.26.14.36.27.1.13.17.29.22.51.05.21.07.48.07.8v2.85h-.63ZM181.65,91.67c0,.3,0,.57,0,.81,0,.24.03.48.06.72h-.43l-.14-.53h-.04c-.08.18-.21.32-.39.44-.18.12-.39.18-.63.18-.47,0-.83-.18-1.06-.55-.23-.37-.35-.95-.35-1.74,0-.75.14-1.32.43-1.71.28-.39.68-.58,1.17-.58.17,0,.3.01.4.03.1.02.21.05.33.1v-1.81h.63v4.64ZM181.01,89.49c-.08-.07-.17-.12-.28-.15-.1-.03-.24-.05-.41-.05-.31,0-.55.14-.73.42-.17.28-.26.72-.26,1.3,0,.26.02.49.05.7.03.21.08.39.15.54.07.15.16.27.26.35.11.08.24.12.4.12.42,0,.69-.25.81-.75v-2.49ZM183.33,88.79v2.69c0,.45.05.76.14.95.09.19.26.29.5.29.12,0,.23-.02.33-.07.1-.05.18-.12.26-.2.08-.08.14-.18.2-.28.06-.11.11-.21.14-.33v-3.05h.63v3.15c0,.21,0,.43.02.65.01.23.04.42.07.59h-.45l-.16-.62h-.03c-.1.19-.24.36-.43.51-.19.14-.42.22-.7.22-.19,0-.35-.02-.49-.07-.14-.05-.26-.13-.36-.25-.1-.12-.17-.29-.22-.51-.05-.21-.07-.49-.07-.82v-2.85h.63ZM188.87,93.19v-2.68c0-.44-.05-.76-.15-.95-.1-.2-.29-.29-.55-.29-.23,0-.43.07-.58.21-.15.14-.26.31-.33.52v3.2h-.63v-4.4h.46l.11.47h.03c.11-.16.26-.29.45-.4.19-.11.42-.17.68-.17.19,0,.35.03.5.08.14.05.26.14.36.27.1.13.17.29.22.51.05.21.07.48.07.8v2.85h-.63ZM193.35,93.39c0,.57-.13.99-.38,1.26-.25.27-.62.4-1.1.4-.29,0-.53-.03-.72-.07-.19-.05-.34-.11-.46-.17l.18-.55c.12.05.25.1.39.15.14.05.31.07.52.07.36,0,.6-.1.73-.3.13-.2.2-.53.2-1v-.33h-.03c-.09.13-.21.24-.36.32-.15.08-.33.11-.56.11-.47,0-.82-.18-1.05-.55-.22-.37-.33-.94-.33-1.73s.15-1.33.44-1.71.72-.58,1.29-.58c.28,0,.51.03.71.08.2.05.37.11.53.18v4.41ZM192.72,89.42c-.18-.09-.4-.14-.68-.14-.3,0-.54.14-.72.41-.18.27-.27.71-.27,1.31,0,.25.01.47.04.68.03.21.08.39.15.55.07.16.16.28.27.36.11.09.24.13.4.13.22,0,.4-.06.53-.18.13-.12.22-.29.28-.53v-2.58Z"/>
  <path class="cls-5" d="M60.28,4.13c-.89-.47-1.81-.91-2.74-1.3C47.27-1.5,34.22-.99,24.83,5.27c-1.87,1.22-3.63,2.79-4.79,4.68,1.05-.79,2.13-1.46,3.3-2.01,1.15-.55,2.35-.97,3.55-1.38,4.68-1.62,9.43-2.1,14.38-1.85,3.98.21,7.9.65,11.67,1.97,9.48,3.31,17.03,10.72,22.05,19.31,2.59,4.43,4.19,9.35,5.39,14.36.46-5.37-.3-10.85-2.29-15.86-3.42-8.53-9.65-16.02-17.81-20.34"/>
  <polygon class="cls-4" points="187.56 31.65 185.2 31.65 184.09 36.74 184.39 36.74 187.56 31.65"/>
  <g>
    <path class="cls-3" d="M23.97,51.63c.35.54.73,1.04,1.18,1.5-.05-.21-.11-.41-.16-.61-.15-.57-.31-1.21-.43-1.79-1.23-5.74-.23-10.8,2.51-15.93-5.2,3.61-6.47,11.55-3.1,16.83"/>
    <path class="cls-7" d="M71.67,57.53c-5.46,7.38-15.1,9.91-23.68,7.26-1.5-.46-3.07-1.06-4.44-1.82-4.7-2.56-8.21-5.58-10.93-11.43-2.01-4.32-3.18-10.92-2.09-15.54.72-3.22,2.77-6.25,5.99-7.25,2.01-.64,4.32-.49,6.25.36.17.08.4.17.4.17,0,0-.16-.56-.19-.66-.07-.24-.14-.49-.22-.73-.15-.49-.31-.99-.49-1.47-.33-.93-.75-1.8-1.21-2.67-3.43.31-7.06,1.6-9.59,4.02-3.13,3-4.35,7.37-4.58,11.57-.2,4.43.39,8.69,2.08,12.97,2.06,5.21,5.78,9.66,10.26,13.06,1.82,1.35,3.84,2.44,6,3.12,7.96,2.49,17.1.98,23.73-4.14,6.3-4.76,8.8-12.76,8.94-20.49.1-5.16-.96-10.39-3.49-14.9,3.98,8.95,3.05,20.65-2.75,28.58"/>
    <path class="cls-3" d="M36.26,23.09c-4.19-.59-8.68,1.35-11.34,4.66-2.03,2.53-2.93,5.76-3.12,8.95-.05,1.04-.03,2.08.11,3.12.28-.99.55-1.97.85-2.95.58-1.9,1.24-3.74,2.17-5.49,2.24-4.38,6.7-7.07,11.34-8.3"/>
    <path class="cls-3" d="M31.49,60.45c-.57-.82-1.17-1.65-1.67-2.5-1.56-2.55-2.18-5.14-2.58-8.08-1.29,1.83-1.32,4.32-.51,6.36.82,2.04,2.57,3.82,4.76,4.22"/>
    <path class="cls-1" d="M26.68,77.76c-4.72-7.1-10.26-13.59-14.95-20.62-1.67-2.58-3.36-5.6-4.24-8.56-1.42-5.59-1.96-11.23-1.05-16.92,1.65-10.83,8.15-20.61,16.36-27.76-4.35,1.72-8.26,4.48-11.56,7.81C1.76,21.15-2.04,35.82,1.05,48.85c.41,1.91,1.1,3.78,1.98,5.51.83,1.65,1.8,3.21,2.84,4.73,5.28,7.57,11.88,14.05,17.87,20.95,3.27,3.8,6.57,7.66,8.79,12.19.48,1.01.89,2.06,1.18,3.14.14.55.26,1.1.33,1.68.23-1.72.02-3.52-.4-5.22-1.31-5.12-4.1-9.71-6.97-14.07"/>
    <path class="cls-2" d="M47.31,22.17c.36.44.73.88,1.1,1.32.01.01.03.03.04.04,1.7,1.98,3.5,3.87,5.36,5.67.29.26.56.51.81.75-3.81-6.05-9.17-14.46-10.64-19.79.17,2.73,1.18,6.46,2.54,9.72.3.72.53,1.49.79,2.28"/>
    <path class="cls-2" d="M47.14,34.53c.13.18.3.33.49.45.77.47,1.81.63,2.64,1.03-.8.28-1.46,1.05-1.35,1.94.05.42.26.82.6,1.08.42.32.97.31,1.47.21.33-.06.67-.12.97-.26.03-.01.05-.03.07-.05.05.86-.19,1.69.03,2.8l-.37-.53c-.42-.46-1-.77-1.56-1.04-.76-.37-1.57-.74-2.05-1.45-.46-.68-.53-1.55-.6-2.37-.06-.67-.14-1.38-.47-1.96l.12.15ZM50.97,37.1c.2-.11.41-.18.6-.24.17.19.28.43.33.7-.15.12-.31.23-.5.34-.51.27-1.05.43-1.52.31.17-.45.57-.83,1.08-1.1M71.38,26.61c-4.08-7.78-9.93-13.74-17.92-16.63-2.57-.94-5.24-1.51-7.92-1.73,5.51,1.69,9.84,3.94,13.75,7.44,3.41,3,5.94,6.84,8.04,10.85,1.51,2.72,2.43,5.75,2.73,8.85.6,6.05-.91,12.42-4.58,17.29-1.75,2.34-3.97,4.25-6.68,5.31-5.46,2.19-11.87.7-16.37-2.99-1.08-.88-2.05-1.88-2.9-2.97-.81-1.04-1.52-2.17-2.11-3.36-.67-1.34-1.19-2.76-1.56-4.22-.74-3.1-1.29-7.48.64-10.18.54-.76,1.24-1.36,2.12-1.62.46-.12.96-.09,1.47.04.18.05.37.1.55.17.29.11.57.25.86.4-.18-.04-.36-.08-.55-.11-.28-.04-.55-.07-.83-.09-3.14-.22-3.34,4.2-3.34,4.2.7-1.18,1.77-1.85,2.83-1.23.51.29.75,1.19.84,1.69.19.97.52,1.82,1.05,2.66.52.82,1.16,1.57,1.86,2.24,1.55,1.51,3.35,2.82,4.55,4.63.81,1.21,1.32,2.62,2.27,3.72.95,1.1,2.56,1.84,3.85,1.17.02-.01.04-.02.06-.04-.07.04-.74-.62-.82-.7-.28-.25-.54-.51-.8-.78-.5-.52-.95-1.08-1.37-1.68-.88-1.26-1.64-2.6-2.28-4-.18-.4-.34-.8-.5-1.21-.13-.33-.28-.72-.33-1.06,0,0,2.53,4.41,4.81,6.91.52.65,1.1,1.25,1.75,1.77.18-.57.52-1.1.99-1.47.24-.2.51-.36.76-.52.08-.05.24-.15.3-.22.12-.13.22-.31.17-.48-.06-.14-.29-.2-.47-.2-.39,0-.75.16-1.07.43-.06.06-.17-.02-.13-.1.2-.45.66-.8,1.16-.87.46-.08,1.02.15,1.11.67.07.46-.19.91-.57,1.14-.97.53-1.54.99-1.91,1.86,0,0,.1.08.14.11.08.06.15.12.24.17.13.08.29.06.43.04.13-.02.25-.06.38-.1.86-.24,1.62-.78,2.21-1.44.44-.49,1.02-1.19.99-1.89-.02-.41-.26-.79-.53-1.1-.42-.47-.87-.88-1.11-1.48-1.92-5.72.96-9.58-2.62-14.04-.5-.63-1.13-1.26-1.92-1.92-1.52-1.33-2.96-2.76-4.34-4.26-.34-.37-.67-.74-1-1.12-.49-.57-.98-1.15-1.45-1.74-3.43-4.29-6.21-9.11-8.03-14.29.01.29.02.57.04.86.17,2.23.59,4.43,1.28,6.55.72,2.17,1.75,4.16,2.74,6.2,1.01,2.08,1.84,4.2,2.22,6.5.16.96.24,1.93.29,2.9,0,.17.02.34.02.52,0,.08,0,.48,0,.48-.03-.03-.07-.07-.1-.1-.08-.08-.17-.16-.26-.24-.03-.02-.05-.05-.08-.07-1.64-1.45-3.8-2.68-6.09-2.44-2.56.31-4.63,2.31-5.69,4.57-1.29,2.77-1.34,5.91-1.05,8.89.62,5.87,3.39,11.54,7.87,15.4,2.94,2.59,6.51,4.29,10.22,5,.2.04.4.08.61.11,5.67.92,11.62-.49,16.15-4.64,8.7-8,10.36-22.02,4.91-32.42"/>
    <path class="cls-4" d="M98.51,43.82c-.7-.03-1.25-.04-1.65-.04h-3.21v-13.73h5.38c.67,0,1.39.04,2.16.11.77.07,1.56.23,2.36.47.8.25,1.52.62,2.17,1.12.64.5,1.16,1.16,1.56,1.96s.6,1.84.6,3.11-.21,2.42-.64,3.28c-.43.86-.99,1.55-1.67,2.07s-1.44.89-2.27,1.12c-.83.23-1.66.38-2.49.45-.83.07-1.59.09-2.29.06M113.1,56.47s0,.05-.02.07c-.01.01-.02.04-.02.06-.11.23-.21.39-.3.48-.14.17-.35.28-.62.32-.27.04-.51,0-.71-.11-.31-.14-.55-.38-.71-.71-.16-.33-.31-.65-.45-.97l-1.93-4.88-.34-.73c-.06-.14-.11-.29-.15-.43s-.11-.29-.19-.43c-.14-.32-.36-.69-.64-1.12-.29-.43-.66-.87-1.12-1.32-.46-.45-1.01-.86-1.65-1.25-.64-.39-1.41-.71-2.29-.97l-.3-.04c1-.09,2.01-.26,3.04-.52,1.03-.26,1.96-.68,2.79-1.27.83-.59,1.51-1.36,2.06-2.31.54-.95.82-2.16.82-3.63,0-1.38-.25-2.52-.75-3.41-.5-.89-1.15-1.6-1.95-2.14s-1.69-.93-2.68-1.19c-.99-.26-1.96-.43-2.91-.52-.96-.09-1.86-.12-2.72-.11-.86.02-1.54.02-2.06.02h-2.04c-.84,0-1.68-.01-2.51-.04h-3v.13c.29,0,.54.07.77.21.17.14.33.38.49.69.16.32.24.78.24,1.38v24.05c0,.58-.08,1.02-.24,1.34-.16.32-.32.55-.49.69-.23.14-.49.22-.77.22v.17c.4-.03.77-.06,1.11-.09.31-.03.62-.05.92-.07.3-.01.54-.02.71-.02s.41,0,.71.02c.3.01.59.04.88.07.34.03.7.06,1.07.09v-.17c-.29,0-.53-.09-.73-.26-.2-.14-.38-.37-.54-.67-.16-.3-.24-.76-.24-1.36v-11.27h3.6c.17,0,.36,0,.58.02.21.01.46.02.75.02.8.06,1.54.2,2.21.43.67.23,1.31.6,1.91,1.12.6.52,1.17,1.2,1.72,2.05.54.85,1.07,1.91,1.59,3.17l.9,2.33c.14.38.31.81.49,1.3.19.49.42.96.71,1.4.28.45.63.85,1.03,1.21.4.36.89.58,1.46.67.74.11,1.36,0,1.84-.37s.76-.86.81-1.49l-.08.04s-.04.06-.04.09"/>
    <path class="cls-4" d="M133.4,51.94c-.24,1.15-.71,2.16-1.39,3.02-.69.86-1.62,1.53-2.79,1.99-.86.37-1.79.56-2.79.56-.92,0-1.81-.16-2.68-.48-.87-.32-1.68-.74-2.42-1.27-.74-.53-1.41-1.17-2.01-1.9-.6-.73-1.09-1.5-1.46-2.31-.46-1.04-.78-2.19-.96-3.45-.19-1.27-.18-2.51.02-3.73.2-1.22.63-2.35,1.29-3.37.66-1.02,1.6-1.79,2.83-2.31.83-.35,1.72-.52,2.66-.52.8,0,1.61.13,2.42.39.81.26,1.59.63,2.34,1.12.74.49,1.43,1.09,2.06,1.81.63.72,1.16,1.54,1.59,2.46.66,1.47,1.1,2.88,1.33,4.23.23,1.35.22,2.61-.02,3.76M132.63,40.28c-.96-.98-2.09-1.75-3.39-2.31-1.3-.56-2.69-.84-4.18-.84s-2.84.28-4.14.84c-1.3.56-2.43,1.33-3.39,2.31-.96.98-1.72,2.12-2.27,3.43-.56,1.31-.84,2.7-.84,4.17s.28,2.89.84,4.19,1.31,2.43,2.27,3.41c.96.98,2.09,1.75,3.39,2.31,1.3.56,2.68.84,4.14.84s2.88-.28,4.18-.84c1.3-.56,2.43-1.33,3.39-2.31.96-.98,1.71-2.12,2.27-3.41.56-1.29.84-2.69.84-4.19s-.28-2.86-.84-4.17c-.56-1.31-1.32-2.45-2.27-3.43"/>
    <path class="cls-4" d="M173.24,56.99c-.11.15-.26.28-.45.41-.19.13-.42.19-.71.19-.43,0-.69-.24-.79-.71-.1-.47-.16-1-.19-1.58v-7.55c0-1.73-.15-3.21-.45-4.45-.3-1.24-.81-2.27-1.52-3.11-.43-.49-.91-.9-1.44-1.23-.53-.33-1.07-.6-1.63-.8-.56-.2-1.12-.34-1.69-.43-.57-.09-1.11-.13-1.63-.13-.86,0-1.64.16-2.36.47-.71.32-1.34.71-1.89,1.17-.54.46-1,.96-1.37,1.51-.37.55-.67,1.04-.9,1.47-.31-.8-.71-1.48-1.2-2.03-.43-.49-.91-.91-1.44-1.25-.53-.35-1.07-.63-1.63-.84-.56-.22-1.12-.37-1.69-.45-.57-.09-1.1-.1-1.58-.04-.77.06-1.48.22-2.12.47-.64.26-1.21.58-1.71.95-.5.37-.92.76-1.26,1.17s-.59.78-.73,1.12v-.22s0-.05-.02-.06c-.01-.01-.02-.04-.02-.07v-.09c0-.35-.05-.72-.15-1.12-.1-.4-.24-.76-.43-1.08-.19-.32-.43-.58-.73-.8-.3-.21-.66-.32-1.09-.32-.26,0-.46.01-.6.04-.14.03-.33.09-.56.17-.74.35-1.19.89-1.33,1.64h.09c.06-.23.16-.43.3-.6.11-.14.26-.28.43-.41.17-.13.4-.19.68-.19.23,0,.41.07.56.22.17.23.28.53.34.91.06.38.09.76.09,1.17v15.28c0,.58-.08,1.02-.24,1.34-.16.32-.32.55-.49.69-.23.14-.49.22-.77.22v.17c.4-.03.77-.06,1.11-.08.31-.03.63-.05.94-.07.31-.01.56-.02.73-.02s.4,0,.69.02c.29.01.57.04.86.07.34.03.7.06,1.07.08v-.17c-.29,0-.53-.09-.73-.26-.2-.14-.38-.37-.54-.67-.16-.3-.24-.76-.24-1.36l.04-13.08c.49-1.18,1.24-2.16,2.25-2.93,1.01-.78,2.11-1.17,3.28-1.17,1.29,0,2.33.27,3.13.8.8.53,1.44,1.23,1.91,2.09.47.86.79,1.85.94,2.96.16,1.11.24,2.22.24,3.35v8.07c0,.58-.08,1.02-.24,1.34-.16.32-.32.55-.49.69-.23.14-.49.22-.77.22v.17c.4-.03.77-.06,1.12-.09.31-.03.63-.05.94-.07.31-.01.56-.02.73-.02s.4,0,.69.02c.29.01.57.04.86.07.34.03.7.06,1.07.09v-.17c-.29,0-.53-.09-.73-.26-.17-.14-.34-.37-.49-.67-.16-.3-.24-.76-.24-1.36v-8.03c0-.86-.04-1.66-.13-2.4-.09-.73-.2-1.42-.34-2.05.32-.84.71-1.55,1.2-2.16.49-.6.99-1.1,1.52-1.49.53-.39,1.07-.67,1.63-.84.56-.17,1.06-.26,1.52-.26,1.29,0,2.34.27,3.15.8.81.53,1.45,1.23,1.91,2.09.46.86.77,1.85.94,2.96.17,1.11.26,2.22.26,3.35v7.34c0,.38.05.75.15,1.12.1.37.24.7.43.99.19.29.43.52.73.71.3.19.66.28,1.09.28.14,0,.27,0,.39-.02.11-.01.24-.04.39-.06.43-.12.81-.31,1.14-.58.33-.27.52-.65.58-1.14h-.04c-.09.23-.19.43-.3.6"/>
    <path class="cls-4" d="M180.3,39.59c1.04-1.09,2.44-1.64,4.18-1.64,1.2,0,2.24.3,3.13.91.89.6,1.51,1.27,1.89,1.99.37.72.44,1.38.21,1.99-.23.6-.87.91-1.93.91h-9.6c.37-1.67,1.08-3.05,2.12-4.14M189.13,56.97c-.99.48-1.94.71-2.85.71-.83,0-1.63-.16-2.4-.48-.77-.32-1.48-.76-2.12-1.32-.64-.56-1.22-1.22-1.74-1.99-.51-.76-.93-1.59-1.24-2.48-.4-1.01-.66-2.13-.79-3.37-.13-1.24-.11-2.46.07-3.67l.08-.35h14.19c-.17-.98-.44-1.88-.81-2.72-.37-.83-.86-1.55-1.48-2.16-.61-.6-1.36-1.07-2.25-1.4-.89-.33-1.93-.5-3.13-.5s-2.38.28-3.45.84c-1.07.56-2.01,1.32-2.81,2.29-.8.96-1.43,2.1-1.89,3.39-.46,1.29-.68,2.68-.68,4.14s.23,2.85.68,4.14c.46,1.29,1.09,2.42,1.89,3.39.8.96,1.74,1.73,2.81,2.29,1.07.56,2.22.84,3.45.84.51,0,1.06-.02,1.65-.07.58-.04,1.19-.17,1.82-.39.63-.22,1.26-.56,1.91-1.04.64-.47,1.29-1.16,1.95-2.05h-.64c-.49.81-1.22,1.45-2.21,1.92"/>
  </g>
  <polygon class="cls-6" points="118.05 25.06 120.56 28.48 123.06 25.06 123.06 33.45 124.2 33.45 124.2 21.59 120.56 26.57 116.91 21.59 116.91 33.45 118.05 33.45 118.05 25.06"/>
  <polygon class="cls-6" points="132.5 32.3 128.67 32.3 128.67 28.24 132.5 28.24 132.5 27.1 128.67 27.1 128.67 23.05 132.5 23.05 132.5 21.91 127.54 21.91 127.54 33.45 132.5 33.45 132.5 32.3"/>
  <polygon class="cls-6" points="140.13 32.3 136.3 32.3 136.3 21.91 135.16 21.91 135.16 33.45 140.13 33.45 140.13 32.3"/>
  <path class="cls-6" d="M145.79,24.64l2.32,6.2h-4.65l2.32-6.2ZM143.1,31.78h5.38l.62,1.67h1.22l-4.53-11.89-4.53,11.89h1.22l.62-1.67Z"/>
  <polygon class="cls-6" points="153.28 25.66 158.13 33.77 158.13 21.91 156.99 21.91 156.99 29.72 152.14 21.59 152.14 33.45 153.28 33.45 153.28 25.66"/>
  <rect class="cls-6" x="161.46" y="21.91" width="1.14" height="11.54"/>
  <polygon class="cls-6" points="170.88 32.3 167.05 32.3 167.05 28.24 170.88 28.24 170.88 27.1 167.05 27.1 167.05 23.05 170.88 23.05 170.88 21.91 165.92 21.91 165.92 33.45 170.88 33.45 170.88 32.3"/>
  <path class="cls-8" d="M35.13,7.82c-7.65,1.28-13.94,6.09-17.31,12.86-3.29,6.54-4.89,13.87-4.7,21.21-.11,5.27.17,10.09,1.41,15.25-3.26-4.2-4.79-9.77-5.42-14.96-.61-5.42-.3-11.09,1.45-16.3,3.44-10.16,13.56-18.95,24.57-18.06"/>
</svg>